<svg xmlns="http://www.w3.org/2000/svg" xmlns:xlink="http://www.w3.org/1999/xlink" width="500" zoomAndPan="magnify" viewBox="0 0 375 374.999991" height="500" preserveAspectRatio="xMidYMid meet" version="1.0"><defs><g/><clipPath id="c0f138cad7"><path d="M 53.09375 105.855469 L 321.59375 105.855469 L 321.59375 192.039062 L 53.09375 192.039062 Z M 53.09375 105.855469 " clip-rule="nonzero"/></clipPath><clipPath id="f798ada472"><path d="M 298.84375 140.5625 C 297.339844 140.5625 296.070312 141.558594 295.652344 142.929688 L 257.75 142.929688 L 244.742188 129.878906 L 229.042969 129.878906 L 219.625 120.425781 L 206.890625 120.425781 L 206.890625 122.226562 L 218.878906 122.226562 L 228.300781 131.679688 L 244 131.679688 L 257.007812 144.730469 L 295.609375 144.730469 C 295.972656 146.183594 297.28125 147.261719 298.84375 147.261719 C 300.6875 147.261719 302.183594 145.761719 302.183594 143.910156 C 302.183594 142.058594 300.6875 140.5625 298.84375 140.5625 Z M 105.195312 121.660156 C 107.371094 121.660156 109.214844 120.257812 109.890625 118.308594 L 113.6875 118.308594 L 123.109375 108.855469 L 141.304688 108.855469 L 148.78125 116.355469 L 167.796875 116.355469 L 173.660156 113.355469 L 150.019531 113.355469 L 142.542969 105.855469 L 121.871094 105.855469 L 112.449219 115.304688 L 109.972656 115.304688 C 109.378906 113.21875 107.464844 111.691406 105.195312 111.691406 C 102.453125 111.691406 100.226562 113.921875 100.226562 116.675781 C 100.226562 119.429688 102.453125 121.660156 105.195312 121.660156 Z M 225.910156 116.355469 L 233.382812 108.855469 L 251.582031 108.855469 L 261 118.308594 L 264.796875 118.308594 C 265.472656 120.257812 267.320312 121.660156 269.492188 121.660156 C 272.238281 121.660156 274.460938 119.429688 274.460938 116.675781 C 274.460938 113.921875 272.238281 111.691406 269.492188 111.691406 C 267.222656 111.691406 265.308594 113.21875 264.714844 115.304688 L 262.238281 115.304688 L 252.820312 105.855469 L 232.144531 105.855469 L 224.671875 113.355469 L 198.5 113.355469 L 206.890625 116.355469 Z M 56.433594 136.597656 C 57.945312 136.597656 59.21875 135.589844 59.632812 134.207031 L 111.648438 134.207031 L 121.664062 124.15625 L 144.914062 124.15625 L 144.914062 122.359375 L 120.921875 122.359375 L 110.902344 132.410156 L 59.664062 132.410156 C 59.292969 130.964844 57.988281 129.898438 56.433594 129.898438 C 54.589844 129.898438 53.09375 131.398438 53.09375 133.25 C 53.09375 135.101562 54.589844 136.597656 56.433594 136.597656 Z M 148.78125 181.535156 L 141.304688 189.039062 L 123.109375 189.039062 L 113.6875 179.585938 L 109.890625 179.585938 C 109.214844 177.632812 107.371094 176.234375 105.195312 176.234375 C 102.453125 176.234375 100.226562 178.464844 100.226562 181.21875 C 100.226562 183.972656 102.453125 186.203125 105.195312 186.203125 C 107.464844 186.203125 109.378906 184.675781 109.972656 182.585938 L 112.449219 182.585938 L 121.871094 192.039062 L 142.542969 192.039062 L 150.019531 184.539062 L 178.417969 184.539062 L 167.796875 181.535156 Z M 318.253906 161.292969 C 316.742188 161.292969 315.46875 162.300781 315.054688 163.683594 L 263.042969 163.683594 L 253.023438 173.734375 L 229.773438 173.734375 L 229.773438 175.535156 L 253.765625 175.535156 L 263.785156 165.484375 L 315.023438 165.484375 C 315.394531 166.929688 316.699219 167.996094 318.253906 167.996094 C 320.097656 167.996094 321.59375 166.496094 321.59375 164.644531 C 321.59375 162.792969 320.097656 161.292969 318.253906 161.292969 Z M 269.492188 176.234375 C 267.320312 176.234375 265.472656 177.632812 264.796875 179.585938 L 261 179.585938 L 251.582031 189.039062 L 233.382812 189.039062 L 225.910156 181.535156 L 206.890625 181.535156 L 195.972656 184.539062 L 224.671875 184.539062 L 232.144531 192.039062 L 252.820312 192.039062 L 262.238281 182.585938 L 264.714844 182.585938 C 265.308594 184.675781 267.222656 186.203125 269.492188 186.203125 C 272.238281 186.203125 274.460938 183.972656 274.460938 181.21875 C 274.460938 178.464844 272.238281 176.234375 269.492188 176.234375 Z M 120.921875 175.535156 L 144.914062 175.535156 L 144.914062 173.734375 L 121.664062 173.734375 L 111.648438 163.683594 L 59.632812 163.683594 C 59.21875 162.300781 57.945312 161.292969 56.433594 161.292969 C 54.589844 161.292969 53.09375 162.792969 53.09375 164.644531 C 53.09375 166.496094 54.589844 167.996094 56.433594 167.996094 C 57.988281 167.996094 59.292969 166.929688 59.664062 165.484375 L 110.902344 165.484375 Z M 217.867188 167.964844 L 225.339844 160.464844 L 234.132812 160.464844 C 234.742188 162.488281 236.613281 163.960938 238.828125 163.960938 C 241.539062 163.960938 243.734375 161.757812 243.734375 159.039062 C 243.734375 156.320312 241.539062 154.117188 238.828125 154.117188 C 236.667969 154.117188 234.835938 155.519531 234.183594 157.464844 L 224.101562 157.464844 L 216.628906 164.964844 L 215.632812 164.964844 C 215.046875 166 214.410156 167.003906 213.71875 167.964844 Z M 216.628906 132.929688 L 224.101562 140.429688 L 234.183594 140.429688 C 234.835938 142.375 236.667969 143.773438 238.828125 143.773438 C 241.539062 143.773438 243.734375 141.574219 243.734375 138.855469 C 243.734375 136.136719 241.539062 133.933594 238.828125 133.933594 C 236.613281 133.933594 234.742188 135.40625 234.132812 137.429688 L 225.339844 137.429688 L 217.867188 129.929688 L 213.71875 129.929688 C 214.410156 130.890625 215.046875 131.890625 215.632812 132.929688 Z M 253.765625 122.359375 L 229.773438 122.359375 L 229.773438 124.15625 L 253.023438 124.15625 L 263.042969 134.207031 L 315.054688 134.207031 C 315.46875 135.589844 316.742188 136.597656 318.253906 136.597656 C 320.097656 136.597656 321.59375 135.101562 321.59375 133.25 C 321.59375 131.398438 320.097656 129.898438 318.253906 129.898438 C 316.699219 129.898438 315.394531 130.964844 315.023438 132.410156 L 263.785156 132.410156 Z M 135.859375 143.773438 C 138.019531 143.773438 139.851562 142.375 140.507812 140.429688 L 150.585938 140.429688 L 158.0625 132.929688 L 159.054688 132.929688 C 159.640625 131.890625 160.28125 130.890625 160.96875 129.929688 L 156.824219 129.929688 L 149.347656 137.429688 L 140.554688 137.429688 C 139.945312 135.40625 138.074219 133.933594 135.859375 133.933594 C 133.148438 133.933594 130.953125 136.136719 130.953125 138.855469 C 130.953125 141.574219 133.148438 143.773438 135.859375 143.773438 Z M 167.796875 120.425781 L 155.066406 120.425781 L 145.644531 129.878906 L 129.945312 129.878906 L 116.9375 142.929688 L 79.035156 142.929688 C 78.621094 141.558594 77.347656 140.5625 75.84375 140.5625 C 74 140.5625 72.503906 142.058594 72.503906 143.910156 C 72.503906 145.761719 74 147.261719 75.84375 147.261719 C 77.40625 147.261719 78.714844 146.183594 79.082031 144.730469 L 117.679688 144.730469 L 130.6875 131.679688 L 146.386719 131.679688 L 155.808594 122.226562 L 167.796875 122.226562 Z M 117.679688 153.164062 L 79.082031 153.164062 C 78.714844 151.710938 77.40625 150.632812 75.84375 150.632812 C 74 150.632812 72.503906 152.132812 72.503906 153.984375 C 72.503906 155.832031 74 157.332031 75.84375 157.332031 C 77.347656 157.332031 78.621094 156.335938 79.035156 154.964844 L 116.9375 154.964844 L 129.945312 168.015625 L 145.644531 168.015625 L 155.066406 177.46875 L 167.796875 177.46875 L 167.796875 175.667969 L 155.808594 175.667969 L 146.386719 166.214844 L 130.6875 166.214844 Z M 206.890625 177.46875 L 219.625 177.46875 L 229.042969 168.015625 L 244.742188 168.015625 L 257.75 154.964844 L 295.652344 154.964844 C 296.070312 156.335938 297.339844 157.332031 298.84375 157.332031 C 300.6875 157.332031 302.183594 155.832031 302.183594 153.984375 C 302.183594 152.132812 300.6875 150.632812 298.84375 150.632812 C 297.28125 150.632812 295.972656 151.710938 295.609375 153.164062 L 257.007812 153.164062 L 244 166.214844 L 228.300781 166.214844 L 218.878906 175.667969 L 206.890625 175.667969 Z M 135.859375 163.960938 C 138.074219 163.960938 139.945312 162.488281 140.554688 160.464844 L 149.347656 160.464844 L 156.824219 167.964844 L 160.96875 167.964844 C 160.28125 167.003906 159.640625 166 159.054688 164.964844 L 158.0625 164.964844 L 150.585938 157.464844 L 140.507812 157.464844 C 139.851562 155.519531 138.019531 154.117188 135.859375 154.117188 C 133.148438 154.117188 130.953125 156.320312 130.953125 159.039062 C 130.953125 161.757812 133.148438 163.960938 135.859375 163.960938 Z M 135.859375 163.960938 " clip-rule="nonzero"/></clipPath><clipPath id="020c41f67e"><path d="M 298.84375 140.5625 C 297.339844 140.5625 296.070312 141.558594 295.652344 142.929688 L 257.75 142.929688 L 244.742188 129.878906 L 229.042969 129.878906 L 219.625 120.425781 L 206.890625 120.425781 L 206.890625 122.226562 L 218.878906 122.226562 L 228.300781 131.679688 L 244 131.679688 L 257.007812 144.730469 L 295.609375 144.730469 C 295.972656 146.183594 297.28125 147.261719 298.84375 147.261719 C 300.6875 147.261719 302.183594 145.761719 302.183594 143.910156 C 302.183594 142.0625 300.6875 140.5625 298.84375 140.5625 Z M 105.195312 121.660156 C 107.371094 121.660156 109.214844 120.257812 109.890625 118.308594 L 113.6875 118.308594 L 123.105469 108.855469 L 141.304688 108.855469 L 148.78125 116.359375 L 167.796875 116.359375 L 173.660156 113.355469 L 150.019531 113.355469 L 142.542969 105.855469 L 121.871094 105.855469 L 112.449219 115.308594 L 109.972656 115.308594 C 109.378906 113.21875 107.464844 111.691406 105.195312 111.691406 C 102.453125 111.691406 100.226562 113.921875 100.226562 116.675781 C 100.226562 119.429688 102.453125 121.660156 105.195312 121.660156 Z M 225.90625 116.359375 L 233.382812 108.855469 L 251.582031 108.855469 L 261 118.308594 L 264.796875 118.308594 C 265.472656 120.257812 267.320312 121.660156 269.492188 121.660156 C 272.238281 121.660156 274.460938 119.429688 274.460938 116.675781 C 274.460938 113.921875 272.238281 111.691406 269.492188 111.691406 C 267.222656 111.691406 265.308594 113.21875 264.714844 115.308594 L 262.238281 115.308594 L 252.820312 105.855469 L 232.144531 105.855469 L 224.671875 113.355469 L 198.5 113.355469 L 206.890625 116.359375 Z M 56.433594 136.601562 C 57.945312 136.601562 59.21875 135.59375 59.632812 134.210938 L 111.648438 134.210938 L 121.664062 124.160156 L 144.914062 124.160156 L 144.914062 122.359375 L 120.921875 122.359375 L 110.902344 132.410156 L 59.664062 132.410156 C 59.292969 130.964844 57.988281 129.898438 56.433594 129.898438 C 54.589844 129.898438 53.09375 131.398438 53.09375 133.25 C 53.09375 135.101562 54.589844 136.601562 56.433594 136.601562 Z M 148.78125 181.535156 L 141.304688 189.039062 L 123.105469 189.039062 L 113.6875 179.585938 L 109.890625 179.585938 C 109.214844 177.632812 107.371094 176.234375 105.195312 176.234375 C 102.453125 176.234375 100.226562 178.464844 100.226562 181.21875 C 100.226562 183.972656 102.453125 186.203125 105.195312 186.203125 C 107.464844 186.203125 109.378906 184.675781 109.972656 182.585938 L 112.449219 182.585938 L 121.871094 192.039062 L 142.542969 192.039062 L 150.019531 184.539062 L 178.417969 184.539062 L 167.796875 181.535156 Z M 318.253906 161.292969 C 316.742188 161.292969 315.46875 162.300781 315.054688 163.683594 L 263.042969 163.683594 L 253.023438 173.734375 L 229.773438 173.734375 L 229.773438 175.535156 L 253.765625 175.535156 L 263.785156 165.484375 L 315.023438 165.484375 C 315.394531 166.929688 316.699219 167.996094 318.253906 167.996094 C 320.097656 167.996094 321.59375 166.496094 321.59375 164.644531 C 321.59375 162.792969 320.097656 161.292969 318.253906 161.292969 Z M 269.492188 176.234375 C 267.320312 176.234375 265.472656 177.632812 264.796875 179.585938 L 261 179.585938 L 251.582031 189.039062 L 233.382812 189.039062 L 225.90625 181.535156 L 206.890625 181.535156 L 195.972656 184.539062 L 224.671875 184.539062 L 232.144531 192.039062 L 252.820312 192.039062 L 262.238281 182.585938 L 264.714844 182.585938 C 265.308594 184.675781 267.222656 186.203125 269.492188 186.203125 C 272.238281 186.203125 274.460938 183.972656 274.460938 181.21875 C 274.460938 178.464844 272.238281 176.234375 269.492188 176.234375 Z M 120.921875 175.535156 L 144.914062 175.535156 L 144.914062 173.734375 L 121.664062 173.734375 L 111.648438 163.683594 L 59.632812 163.683594 C 59.21875 162.300781 57.945312 161.292969 56.433594 161.292969 C 54.589844 161.292969 53.09375 162.792969 53.09375 164.644531 C 53.09375 166.496094 54.589844 167.996094 56.433594 167.996094 C 57.988281 167.996094 59.292969 166.929688 59.664062 165.484375 L 110.902344 165.484375 Z M 217.867188 167.964844 L 225.339844 160.464844 L 234.132812 160.464844 C 234.742188 162.488281 236.613281 163.960938 238.828125 163.960938 C 241.539062 163.960938 243.734375 161.757812 243.734375 159.039062 C 243.734375 156.320312 241.539062 154.117188 238.828125 154.117188 C 236.671875 154.117188 234.835938 155.519531 234.183594 157.464844 L 224.101562 157.464844 L 216.625 164.964844 L 215.632812 164.964844 C 215.046875 166 214.410156 167.003906 213.71875 167.964844 Z M 216.625 132.929688 L 224.101562 140.429688 L 234.183594 140.429688 C 234.835938 142.375 236.671875 143.773438 238.828125 143.773438 C 241.539062 143.773438 243.734375 141.574219 243.734375 138.855469 C 243.734375 136.136719 241.539062 133.933594 238.828125 133.933594 C 236.613281 133.933594 234.742188 135.40625 234.132812 137.429688 L 225.339844 137.429688 L 217.867188 129.929688 L 213.71875 129.929688 C 214.410156 130.890625 215.046875 131.890625 215.632812 132.929688 Z M 253.765625 122.359375 L 229.773438 122.359375 L 229.773438 124.160156 L 253.023438 124.160156 L 263.042969 134.210938 L 315.054688 134.210938 C 315.46875 135.59375 316.742188 136.601562 318.253906 136.601562 C 320.097656 136.601562 321.59375 135.101562 321.59375 133.25 C 321.59375 131.398438 320.097656 129.898438 318.253906 129.898438 C 316.699219 129.898438 315.394531 130.964844 315.023438 132.410156 L 263.785156 132.410156 Z M 135.859375 143.773438 C 138.019531 143.773438 139.851562 142.375 140.503906 140.429688 L 150.585938 140.429688 L 158.0625 132.929688 L 159.054688 132.929688 C 159.640625 131.890625 160.28125 130.890625 160.96875 129.929688 L 156.820312 129.929688 L 149.347656 137.429688 L 140.554688 137.429688 C 139.945312 135.40625 138.074219 133.933594 135.859375 133.933594 C 133.148438 133.933594 130.953125 136.136719 130.953125 138.855469 C 130.953125 141.574219 133.148438 143.773438 135.859375 143.773438 Z M 167.796875 120.425781 L 155.066406 120.425781 L 145.644531 129.878906 L 129.945312 129.878906 L 116.9375 142.929688 L 79.035156 142.929688 C 78.621094 141.558594 77.347656 140.5625 75.84375 140.5625 C 74 140.5625 72.503906 142.0625 72.503906 143.910156 C 72.503906 145.761719 74 147.261719 75.84375 147.261719 C 77.40625 147.261719 78.714844 146.183594 79.082031 144.730469 L 117.679688 144.730469 L 130.6875 131.679688 L 146.386719 131.679688 L 155.808594 122.226562 L 167.796875 122.226562 Z M 117.679688 153.164062 L 79.082031 153.164062 C 78.714844 151.710938 77.40625 150.632812 75.84375 150.632812 C 74 150.632812 72.503906 152.132812 72.503906 153.984375 C 72.503906 155.832031 74 157.332031 75.84375 157.332031 C 77.347656 157.332031 78.621094 156.335938 79.035156 154.964844 L 116.9375 154.964844 L 129.945312 168.015625 L 145.644531 168.015625 L 155.066406 177.46875 L 167.796875 177.46875 L 167.796875 175.667969 L 155.808594 175.667969 L 146.386719 166.214844 L 130.6875 166.214844 Z M 206.890625 177.46875 L 219.625 177.46875 L 229.042969 168.015625 L 244.742188 168.015625 L 257.75 154.964844 L 295.652344 154.964844 C 296.070312 156.335938 297.339844 157.332031 298.84375 157.332031 C 300.6875 157.332031 302.183594 155.832031 302.183594 153.984375 C 302.183594 152.132812 300.6875 150.632812 298.84375 150.632812 C 297.28125 150.632812 295.972656 151.710938 295.609375 153.164062 L 257.007812 153.164062 L 244 166.214844 L 228.300781 166.214844 L 218.878906 175.667969 L 206.890625 175.667969 Z M 135.859375 163.960938 C 138.074219 163.960938 139.945312 162.488281 140.554688 160.464844 L 149.347656 160.464844 L 156.820312 167.964844 L 160.96875 167.964844 C 160.28125 167.003906 159.640625 166 159.054688 164.964844 L 158.0625 164.964844 L 150.585938 157.464844 L 140.503906 157.464844 C 139.851562 155.519531 138.019531 154.117188 135.859375 154.117188 C 133.148438 154.117188 130.953125 156.320312 130.953125 159.039062 C 130.953125 161.757812 133.148438 163.960938 135.859375 163.960938 " clip-rule="nonzero"/></clipPath><linearGradient x1="0.0000000024333" gradientTransform="matrix(268.499964, 0, 0, 269.426964, 53.094222, 148.946436)" y1="0" x2="0.999998" gradientUnits="userSpaceOnUse" y2="0" id="3bcf43c1cf"><stop stop-opacity="1" stop-color="rgb(31.799316%, 67.799377%, 89.7995%)" offset="0"/><stop stop-opacity="1" stop-color="rgb(31.608582%, 67.655945%, 89.608765%)" offset="0.0078125"/><stop stop-opacity="1" stop-color="rgb(31.227112%, 67.324829%, 89.408875%)" offset="0.015625"/><stop stop-opacity="1" stop-color="rgb(31.018066%, 66.896057%, 89.199829%)" offset="0.0195312"/><stop stop-opacity="1" stop-color="rgb(30.999756%, 66.654968%, 88.999939%)" offset="0.0234375"/><stop stop-opacity="1" stop-color="rgb(30.999756%, 66.27655%, 88.798523%)" offset="0.0273438"/><stop stop-opacity="1" stop-color="rgb(30.999756%, 65.899658%, 88.598633%)" offset="0.03125"/><stop stop-opacity="1" stop-color="rgb(30.799866%, 65.699768%, 88.398743%)" offset="0.0351562"/><stop stop-opacity="1" stop-color="rgb(30.599976%, 65.499878%, 88.198853%)" offset="0.0390625"/><stop stop-opacity="1" stop-color="rgb(30.599976%, 65.306091%, 88.005066%)" offset="0.046875"/><stop stop-opacity="1" stop-color="rgb(30.599976%, 64.92157%, 87.805176%)" offset="0.0546875"/><stop stop-opacity="1" stop-color="rgb(30.599976%, 64.5401%, 87.649536%)" offset="0.0625"/><stop stop-opacity="1" stop-color="rgb(30.383301%, 64.108276%, 87.298584%)" offset="0.0664062"/><stop stop-opacity="1" stop-color="rgb(30.168152%, 63.868713%, 87.098694%)" offset="0.0703125"/><stop stop-opacity="1" stop-color="rgb(29.983521%, 63.677979%, 87.09259%)" offset="0.078125"/><stop stop-opacity="1" stop-color="rgb(29.798889%, 63.096619%, 86.8927%)" offset="0.0820312"/><stop stop-opacity="1" stop-color="rgb(29.798889%, 62.705994%, 86.698914%)" offset="0.0859375"/><stop stop-opacity="1" stop-color="rgb(29.798889%, 62.561035%, 86.51123%)" offset="0.09375"/><stop stop-opacity="1" stop-color="rgb(29.598999%, 62.229919%, 86.31134%)" offset="0.0976562"/><stop stop-opacity="1" stop-color="rgb(29.399109%, 62.043762%, 86.299133%)" offset="0.101562"/><stop stop-opacity="1" stop-color="rgb(29.399109%, 61.820984%, 86.099243%)" offset="0.105469"/><stop stop-opacity="1" stop-color="rgb(29.399109%, 61.599731%, 85.899353%)" offset="0.109375"/><stop stop-opacity="1" stop-color="rgb(29.389954%, 61.399841%, 85.699463%)" offset="0.113281"/><stop stop-opacity="1" stop-color="rgb(29.380798%, 61.199951%, 85.499573%)" offset="0.117188"/><stop stop-opacity="1" stop-color="rgb(29.190063%, 60.998535%, 85.299683%)" offset="0.121094"/><stop stop-opacity="1" stop-color="rgb(28.999329%, 60.798645%, 85.099792%)" offset="0.125"/><stop stop-opacity="1" stop-color="rgb(28.999329%, 60.60791%, 85.099792%)" offset="0.132812"/><stop stop-opacity="1" stop-color="rgb(28.999329%, 60.20813%, 84.898376%)" offset="0.136719"/><stop stop-opacity="1" stop-color="rgb(28.999329%, 59.999084%, 84.698486%)" offset="0.140625"/><stop stop-opacity="1" stop-color="rgb(28.799438%, 59.776306%, 84.498596%)" offset="0.144531"/><stop stop-opacity="1" stop-color="rgb(28.599548%, 59.555054%, 84.298706%)" offset="0.148437"/><stop stop-opacity="1" stop-color="rgb(28.399658%, 59.176636%, 84.286499%)" offset="0.152344"/><stop stop-opacity="1" stop-color="rgb(28.199768%, 58.799744%, 84.274292%)" offset="0.15625"/><stop stop-opacity="1" stop-color="rgb(28.199768%, 58.599854%, 84.086609%)" offset="0.160156"/><stop stop-opacity="1" stop-color="rgb(28.199768%, 58.399963%, 83.898926%)" offset="0.164062"/><stop stop-opacity="1" stop-color="rgb(28.199768%, 58.206177%, 83.705139%)" offset="0.171875"/><stop stop-opacity="1" stop-color="rgb(28.199768%, 57.821655%, 83.505249%)" offset="0.179688"/><stop stop-opacity="1" stop-color="rgb(27.999878%, 57.48291%, 83.299255%)" offset="0.183594"/><stop stop-opacity="1" stop-color="rgb(27.799988%, 57.336426%, 83.099365%)" offset="0.1875"/><stop stop-opacity="1" stop-color="rgb(27.799988%, 57.116699%, 82.899475%)" offset="0.191406"/><stop stop-opacity="1" stop-color="rgb(27.799988%, 56.898499%, 82.699585%)" offset="0.195313"/><stop stop-opacity="1" stop-color="rgb(27.799988%, 56.698608%, 82.695007%)" offset="0.199219"/><stop stop-opacity="1" stop-color="rgb(27.799988%, 56.498718%, 82.69043%)" offset="0.203125"/><stop stop-opacity="1" stop-color="rgb(27.651978%, 56.30188%, 82.543945%)" offset="0.207031"/><stop stop-opacity="1" stop-color="rgb(27.503967%, 56.105042%, 82.398987%)" offset="0.210938"/><stop stop-opacity="1" stop-color="rgb(27.500916%, 55.9021%, 82.199097%)" offset="0.214844"/><stop stop-opacity="1" stop-color="rgb(27.49939%, 55.699158%, 81.999207%)" offset="0.21875"/><stop stop-opacity="1" stop-color="rgb(27.49939%, 55.499268%, 81.820679%)" offset="0.222656"/><stop stop-opacity="1" stop-color="rgb(27.49939%, 55.299377%, 81.643677%)" offset="0.226562"/><stop stop-opacity="1" stop-color="rgb(27.2995%, 55.079651%, 81.602478%)" offset="0.230469"/><stop stop-opacity="1" stop-color="rgb(27.099609%, 54.86145%, 81.561279%)" offset="0.234375"/><stop stop-opacity="1" stop-color="rgb(27.090454%, 54.670715%, 81.3797%)" offset="0.242188"/><stop stop-opacity="1" stop-color="rgb(26.890564%, 54.289246%, 81.199646%)" offset="0.25"/><stop stop-opacity="1" stop-color="rgb(26.699829%, 53.898621%, 80.999756%)" offset="0.253906"/><stop stop-opacity="1" stop-color="rgb(26.699829%, 53.69873%, 80.799866%)" offset="0.257812"/><stop stop-opacity="1" stop-color="rgb(26.699829%, 53.49884%, 80.618286%)" offset="0.261719"/><stop stop-opacity="1" stop-color="rgb(26.699829%, 53.29895%, 80.436707%)" offset="0.265625"/><stop stop-opacity="1" stop-color="rgb(26.676941%, 53.076172%, 80.395508%)" offset="0.269531"/><stop stop-opacity="1" stop-color="rgb(26.655579%, 52.854919%, 80.355835%)" offset="0.273438"/><stop stop-opacity="1" stop-color="rgb(26.477051%, 52.526855%, 80.1651%)" offset="0.277344"/><stop stop-opacity="1" stop-color="rgb(26.298523%, 52.198792%, 79.974365%)" offset="0.28125"/><stop stop-opacity="1" stop-color="rgb(26.298523%, 51.998901%, 79.78363%)" offset="0.285156"/><stop stop-opacity="1" stop-color="rgb(26.298523%, 51.799011%, 79.592896%)" offset="0.289062"/><stop stop-opacity="1" stop-color="rgb(26.104736%, 51.605225%, 79.396057%)" offset="0.292969"/><stop stop-opacity="1" stop-color="rgb(25.912476%, 51.411438%, 79.199219%)" offset="0.296875"/><stop stop-opacity="1" stop-color="rgb(25.904846%, 51.220703%, 79.199219%)" offset="0.304688"/><stop stop-opacity="1" stop-color="rgb(25.723267%, 50.839233%, 78.999329%)" offset="0.308594"/><stop stop-opacity="1" stop-color="rgb(25.549316%, 50.650024%, 78.799438%)" offset="0.3125"/><stop stop-opacity="1" stop-color="rgb(25.523376%, 50.424194%, 78.599548%)" offset="0.316406"/><stop stop-opacity="1" stop-color="rgb(25.498962%, 50.19989%, 78.399658%)" offset="0.320313"/><stop stop-opacity="1" stop-color="rgb(25.498962%, 50.192261%, 78.399658%)" offset="0.328125"/><stop stop-opacity="1" stop-color="rgb(25.498962%, 49.992371%, 78.20282%)" offset="0.332031"/><stop stop-opacity="1" stop-color="rgb(25.498962%, 49.798584%, 78.005981%)" offset="0.335938"/><stop stop-opacity="1" stop-color="rgb(25.311279%, 49.598694%, 78.00293%)" offset="0.339844"/><stop stop-opacity="1" stop-color="rgb(25.123596%, 49.398804%, 77.999878%)" offset="0.34375"/><stop stop-opacity="1" stop-color="rgb(25.111389%, 49.198914%, 77.798462%)" offset="0.347656"/><stop stop-opacity="1" stop-color="rgb(25.099182%, 48.999023%, 77.598572%)" offset="0.351562"/><stop stop-opacity="1" stop-color="rgb(25.099182%, 48.779297%, 77.449036%)" offset="0.355469"/><stop stop-opacity="1" stop-color="rgb(25.099182%, 48.561096%, 77.2995%)" offset="0.359375"/><stop stop-opacity="1" stop-color="rgb(25.090027%, 48.179626%, 77.099609%)" offset="0.363281"/><stop stop-opacity="1" stop-color="rgb(25.080872%, 47.799683%, 76.899719%)" offset="0.367188"/><stop stop-opacity="1" stop-color="rgb(24.890137%, 47.648621%, 76.899719%)" offset="0.375"/><stop stop-opacity="1" stop-color="rgb(24.508667%, 47.499084%, 76.699829%)" offset="0.378906"/><stop stop-opacity="1" stop-color="rgb(24.317932%, 47.499084%, 76.499939%)" offset="0.382813"/><stop stop-opacity="1" stop-color="rgb(24.308777%, 47.299194%, 76.318359%)" offset="0.386719"/><stop stop-opacity="1" stop-color="rgb(24.299622%, 47.099304%, 76.13678%)" offset="0.390625"/><stop stop-opacity="1" stop-color="rgb(24.299622%, 46.876526%, 76.116943%)" offset="0.394531"/><stop stop-opacity="1" stop-color="rgb(24.299622%, 46.655273%, 76.098633%)" offset="0.398438"/><stop stop-opacity="1" stop-color="rgb(24.299622%, 46.464539%, 75.898743%)" offset="0.402344"/><stop stop-opacity="1" stop-color="rgb(24.299622%, 46.273804%, 75.698853%)" offset="0.40625"/><stop stop-opacity="1" stop-color="rgb(24.29657%, 46.083069%, 75.695801%)" offset="0.414062"/><stop stop-opacity="1" stop-color="rgb(24.09668%, 45.695496%, 75.495911%)" offset="0.417969"/><stop stop-opacity="1" stop-color="rgb(23.899841%, 45.498657%, 75.299072%)" offset="0.421875"/><stop stop-opacity="1" stop-color="rgb(23.899841%, 45.298767%, 75.114441%)" offset="0.425781"/><stop stop-opacity="1" stop-color="rgb(23.899841%, 45.098877%, 74.931335%)" offset="0.429688"/><stop stop-opacity="1" stop-color="rgb(23.899841%, 44.898987%, 74.740601%)" offset="0.433594"/><stop stop-opacity="1" stop-color="rgb(23.899841%, 44.699097%, 74.549866%)" offset="0.4375"/><stop stop-opacity="1" stop-color="rgb(23.883057%, 44.483948%, 74.508667%)" offset="0.441406"/><stop stop-opacity="1" stop-color="rgb(23.867798%, 44.268799%, 74.467468%)" offset="0.445313"/><stop stop-opacity="1" stop-color="rgb(23.683167%, 44.078064%, 74.282837%)" offset="0.453125"/><stop stop-opacity="1" stop-color="rgb(23.301697%, 43.693542%, 73.902893%)" offset="0.457031"/><stop stop-opacity="1" stop-color="rgb(23.104858%, 43.499756%, 73.706055%)" offset="0.460938"/><stop stop-opacity="1" stop-color="rgb(23.101807%, 43.312073%, 73.703003%)" offset="0.46875"/><stop stop-opacity="1" stop-color="rgb(23.098755%, 42.933655%, 73.521423%)" offset="0.476563"/><stop stop-opacity="1" stop-color="rgb(23.098755%, 42.570496%, 73.301697%)" offset="0.484375"/><stop stop-opacity="1" stop-color="rgb(23.098755%, 42.199707%, 73.080444%)" offset="0.488281"/><stop stop-opacity="1" stop-color="rgb(23.098755%, 41.999817%, 72.898865%)" offset="0.492188"/><stop stop-opacity="1" stop-color="rgb(23.098755%, 41.799927%, 72.698975%)" offset="0.496094"/><stop stop-opacity="1" stop-color="rgb(23.098755%, 41.600037%, 72.499084%)" offset="0.5"/><stop stop-opacity="1" stop-color="rgb(22.898865%, 41.409302%, 72.499084%)" offset="0.503906"/><stop stop-opacity="1" stop-color="rgb(22.698975%, 41.218567%, 72.499084%)" offset="0.507812"/><stop stop-opacity="1" stop-color="rgb(22.698975%, 41.027832%, 72.348022%)" offset="0.515625"/><stop stop-opacity="1" stop-color="rgb(22.549438%, 40.795898%, 71.998596%)" offset="0.519531"/><stop stop-opacity="1" stop-color="rgb(22.399902%, 40.756226%, 71.798706%)" offset="0.523438"/><stop stop-opacity="1" stop-color="rgb(22.399902%, 40.565491%, 71.786499%)" offset="0.53125"/><stop stop-opacity="1" stop-color="rgb(22.399902%, 40.184021%, 71.586609%)" offset="0.539062"/><stop stop-opacity="1" stop-color="rgb(22.399902%, 39.796448%, 71.205139%)" offset="0.542969"/><stop stop-opacity="1" stop-color="rgb(22.399902%, 39.599609%, 71.011353%)" offset="0.546875"/><stop stop-opacity="1" stop-color="rgb(22.198486%, 39.399719%, 71.005249%)" offset="0.550781"/><stop stop-opacity="1" stop-color="rgb(21.998596%, 39.199829%, 70.999146%)" offset="0.554687"/><stop stop-opacity="1" stop-color="rgb(21.998596%, 38.998413%, 70.799255%)" offset="0.558594"/><stop stop-opacity="1" stop-color="rgb(21.998596%, 38.798523%, 70.599365%)" offset="0.5625"/><stop stop-opacity="1" stop-color="rgb(21.998596%, 38.598633%, 70.584106%)" offset="0.566406"/><stop stop-opacity="1" stop-color="rgb(21.998596%, 38.398743%, 70.568848%)" offset="0.570312"/><stop stop-opacity="1" stop-color="rgb(21.998596%, 38.198853%, 70.384216%)" offset="0.574219"/><stop stop-opacity="1" stop-color="rgb(21.998596%, 37.998962%, 70.199585%)" offset="0.578125"/><stop stop-opacity="1" stop-color="rgb(21.998596%, 37.802124%, 70.002747%)" offset="0.582031"/><stop stop-opacity="1" stop-color="rgb(21.998596%, 37.605286%, 69.805908%)" offset="0.585937"/><stop stop-opacity="1" stop-color="rgb(21.798706%, 37.602234%, 69.802856%)" offset="0.589844"/><stop stop-opacity="1" stop-color="rgb(21.598816%, 37.599182%, 69.799805%)" offset="0.59375"/><stop stop-opacity="1" stop-color="rgb(21.420288%, 37.44812%, 69.598389%)" offset="0.597656"/><stop stop-opacity="1" stop-color="rgb(21.243286%, 37.298584%, 69.398499%)" offset="0.601562"/><stop stop-opacity="1" stop-color="rgb(21.220398%, 37.080383%, 69.198608%)" offset="0.605469"/><stop stop-opacity="1" stop-color="rgb(21.199036%, 36.862183%, 68.998718%)" offset="0.609375"/><stop stop-opacity="1" stop-color="rgb(21.199036%, 36.671448%, 68.798828%)" offset="0.613281"/><stop stop-opacity="1" stop-color="rgb(21.199036%, 36.480713%, 68.598938%)" offset="0.617188"/><stop stop-opacity="1" stop-color="rgb(21.199036%, 36.289978%, 68.598938%)" offset="0.625"/><stop stop-opacity="1" stop-color="rgb(21.199036%, 35.908508%, 68.408203%)" offset="0.632812"/><stop stop-opacity="1" stop-color="rgb(21.199036%, 35.527039%, 68.208313%)" offset="0.640625"/><stop stop-opacity="1" stop-color="rgb(20.999146%, 35.295105%, 67.999268%)" offset="0.644531"/><stop stop-opacity="1" stop-color="rgb(20.799255%, 35.255432%, 67.799377%)" offset="0.648438"/><stop stop-opacity="1" stop-color="rgb(20.799255%, 35.064697%, 67.790222%)" offset="0.65625"/><stop stop-opacity="1" stop-color="rgb(20.799255%, 34.686279%, 67.63916%)" offset="0.664063"/><stop stop-opacity="1" stop-color="rgb(20.799255%, 34.30481%, 67.498779%)" offset="0.671875"/><stop stop-opacity="1" stop-color="rgb(20.599365%, 33.921814%, 67.298889%)" offset="0.675781"/><stop stop-opacity="1" stop-color="rgb(20.399475%, 33.731079%, 67.098999%)" offset="0.679688"/><stop stop-opacity="1" stop-color="rgb(20.399475%, 33.714294%, 66.899109%)" offset="0.683594"/><stop stop-opacity="1" stop-color="rgb(20.399475%, 33.699036%, 66.699219%)" offset="0.6875"/><stop stop-opacity="1" stop-color="rgb(20.399475%, 33.483887%, 66.499329%)" offset="0.691406"/><stop stop-opacity="1" stop-color="rgb(20.399475%, 33.268738%, 66.299438%)" offset="0.695312"/><stop stop-opacity="1" stop-color="rgb(20.393372%, 33.078003%, 66.293335%)" offset="0.703125"/><stop stop-opacity="1" stop-color="rgb(20.193481%, 32.693481%, 66.093445%)" offset="0.710937"/><stop stop-opacity="1" stop-color="rgb(19.999695%, 32.357788%, 65.899658%)" offset="0.71875"/><stop stop-opacity="1" stop-color="rgb(19.999695%, 32.029724%, 65.699768%)" offset="0.722656"/><stop stop-opacity="1" stop-color="rgb(19.999695%, 31.843567%, 65.499878%)" offset="0.726562"/><stop stop-opacity="1" stop-color="rgb(19.979858%, 31.802368%, 65.298462%)" offset="0.730469"/><stop stop-opacity="1" stop-color="rgb(19.961548%, 31.761169%, 65.098572%)" offset="0.734375"/><stop stop-opacity="1" stop-color="rgb(19.779968%, 31.570435%, 65.089417%)" offset="0.742188"/><stop stop-opacity="1" stop-color="rgb(19.599915%, 31.190491%, 64.889526%)" offset="0.75"/><stop stop-opacity="1" stop-color="rgb(19.599915%, 30.809021%, 64.508057%)" offset="0.757812"/><stop stop-opacity="1" stop-color="rgb(19.599915%, 30.427551%, 64.308167%)" offset="0.765625"/><stop stop-opacity="1" stop-color="rgb(19.577026%, 30.01709%, 64.099121%)" offset="0.769531"/><stop stop-opacity="1" stop-color="rgb(19.555664%, 29.798889%, 63.899231%)" offset="0.773438"/><stop stop-opacity="1" stop-color="rgb(19.377136%, 29.786682%, 63.887024%)" offset="0.78125"/><stop stop-opacity="1" stop-color="rgb(19.198608%, 29.586792%, 63.687134%)" offset="0.789063"/><stop stop-opacity="1" stop-color="rgb(19.198608%, 29.205322%, 63.499451%)" offset="0.796875"/><stop stop-opacity="1" stop-color="rgb(19.198608%, 29.005432%, 63.299561%)" offset="0.800781"/><stop stop-opacity="1" stop-color="rgb(19.198608%, 28.999329%, 63.09967%)" offset="0.804688"/><stop stop-opacity="1" stop-color="rgb(19.198608%, 28.799438%, 62.924194%)" offset="0.808594"/><stop stop-opacity="1" stop-color="rgb(19.198608%, 28.599548%, 62.748718%)" offset="0.8125"/><stop stop-opacity="1" stop-color="rgb(18.998718%, 28.382874%, 62.712097%)" offset="0.816406"/><stop stop-opacity="1" stop-color="rgb(18.798828%, 28.167725%, 62.675476%)" offset="0.820313"/><stop stop-opacity="1" stop-color="rgb(18.798828%, 27.983093%, 62.530518%)" offset="0.828125"/><stop stop-opacity="1" stop-color="rgb(18.798828%, 27.648926%, 62.193298%)" offset="0.84375"/><stop stop-opacity="1" stop-color="rgb(18.6203%, 27.2995%, 61.799622%)" offset="0.847656"/><stop stop-opacity="1" stop-color="rgb(18.443298%, 27.099609%, 61.599731%)" offset="0.851562"/><stop stop-opacity="1" stop-color="rgb(18.42041%, 26.899719%, 61.579895%)" offset="0.855469"/><stop stop-opacity="1" stop-color="rgb(18.399048%, 26.699829%, 61.561584%)" offset="0.859375"/><stop stop-opacity="1" stop-color="rgb(18.399048%, 26.689148%, 61.380005%)" offset="0.867187"/><stop stop-opacity="1" stop-color="rgb(18.399048%, 26.489258%, 61.199951%)" offset="0.875"/><stop stop-opacity="1" stop-color="rgb(18.399048%, 26.098633%, 60.998535%)" offset="0.878906"/><stop stop-opacity="1" stop-color="rgb(18.399048%, 25.898743%, 60.798645%)" offset="0.882812"/><stop stop-opacity="1" stop-color="rgb(18.399048%, 25.698853%, 60.617065%)" offset="0.886719"/><stop stop-opacity="1" stop-color="rgb(18.399048%, 25.498962%, 60.437012%)" offset="0.890625"/><stop stop-opacity="1" stop-color="rgb(18.199158%, 25.299072%, 60.395813%)" offset="0.894531"/><stop stop-opacity="1" stop-color="rgb(17.999268%, 25.099182%, 60.35614%)" offset="0.898437"/><stop stop-opacity="1" stop-color="rgb(17.999268%, 25.086975%, 60.177612%)" offset="0.90625"/><stop stop-opacity="1" stop-color="rgb(17.999268%, 24.887085%, 59.799194%)" offset="0.910156"/><stop stop-opacity="1" stop-color="rgb(17.999268%, 24.699402%, 59.599304%)" offset="0.914062"/><stop stop-opacity="1" stop-color="rgb(17.999268%, 24.505615%, 59.599304%)" offset="0.921875"/><stop stop-opacity="1" stop-color="rgb(17.999268%, 24.305725%, 59.414673%)" offset="0.929688"/><stop stop-opacity="1" stop-color="rgb(17.823792%, 24.099731%, 59.214783%)" offset="0.933594"/><stop stop-opacity="1" stop-color="rgb(17.649841%, 23.899841%, 59.199524%)" offset="0.9375"/><stop stop-opacity="1" stop-color="rgb(17.623901%, 23.698425%, 58.999634%)" offset="0.941406"/><stop stop-opacity="1" stop-color="rgb(17.599487%, 23.498535%, 58.799744%)" offset="0.945312"/><stop stop-opacity="1" stop-color="rgb(17.599487%, 23.298645%, 58.599854%)" offset="0.949219"/><stop stop-opacity="1" stop-color="rgb(17.599487%, 23.098755%, 58.399963%)" offset="0.953125"/><stop stop-opacity="1" stop-color="rgb(17.599487%, 23.098755%, 58.399963%)" offset="0.960938"/><stop stop-opacity="1" stop-color="rgb(17.459106%, 22.898865%, 58.21228%)" offset="0.964844"/><stop stop-opacity="1" stop-color="rgb(17.318726%, 22.698975%, 58.024597%)" offset="0.96875"/><stop stop-opacity="1" stop-color="rgb(17.308044%, 22.564697%, 58.010864%)" offset="0.976563"/><stop stop-opacity="1" stop-color="rgb(17.298889%, 22.415161%, 57.798767%)" offset="0.980469"/><stop stop-opacity="1" stop-color="rgb(17.298889%, 22.399902%, 57.598877%)" offset="0.984375"/><stop stop-opacity="1" stop-color="rgb(17.298889%, 22.198486%, 57.591248%)" offset="0.988281"/><stop stop-opacity="1" stop-color="rgb(17.298889%, 21.998596%, 57.585144%)" offset="0.992188"/><stop stop-opacity="1" stop-color="rgb(17.298889%, 21.998596%, 57.441711%)" offset="1"/></linearGradient><clipPath id="e66af21d36"><path d="M 148.613281 110.082031 L 226.074219 110.082031 L 226.074219 187.8125 L 148.613281 187.8125 Z M 148.613281 110.082031 " clip-rule="nonzero"/></clipPath><clipPath id="f36cf2d7be"><path d="M 187.34375 177.65625 C 171.542969 177.65625 158.734375 164.800781 158.734375 148.945312 C 158.734375 133.09375 171.542969 120.238281 187.34375 120.238281 C 203.144531 120.238281 215.953125 133.09375 215.953125 148.945312 C 215.953125 164.800781 203.144531 177.65625 187.34375 177.65625 Z M 187.34375 110.082031 C 165.953125 110.082031 148.613281 127.484375 148.613281 148.945312 C 148.613281 170.410156 165.953125 187.8125 187.34375 187.8125 C 208.734375 187.8125 226.074219 170.410156 226.074219 148.945312 C 226.074219 127.484375 208.734375 110.082031 187.34375 110.082031 Z M 187.34375 110.082031 " clip-rule="nonzero"/></clipPath><clipPath id="b5a918db32"><path d="M 187.34375 177.65625 C 171.542969 177.65625 158.734375 164.800781 158.734375 148.945312 C 158.734375 133.09375 171.542969 120.238281 187.34375 120.238281 C 203.144531 120.238281 215.953125 133.09375 215.953125 148.945312 C 215.953125 164.800781 203.144531 177.65625 187.34375 177.65625 Z M 187.34375 110.082031 C 165.953125 110.082031 148.613281 127.484375 148.613281 148.945312 C 148.613281 170.410156 165.953125 187.8125 187.34375 187.8125 C 208.734375 187.8125 226.074219 170.410156 226.074219 148.945312 C 226.074219 127.484375 208.734375 110.082031 187.34375 110.082031 " clip-rule="nonzero"/></clipPath><linearGradient x1="0.00000136665" gradientTransform="matrix(77.460829, 0, 0, 77.728262, 148.613801, 148.946436)" y1="0" x2="0.999991" gradientUnits="userSpaceOnUse" y2="0" id="273ce6fb52"><stop stop-opacity="1" stop-color="rgb(31.799316%, 67.799377%, 89.7995%)" offset="0"/><stop stop-opacity="1" stop-color="rgb(31.608582%, 67.655945%, 89.608765%)" offset="0.0078125"/><stop stop-opacity="1" stop-color="rgb(31.227112%, 67.324829%, 89.408875%)" offset="0.015625"/><stop stop-opacity="1" stop-color="rgb(31.018066%, 66.896057%, 89.199829%)" offset="0.0195313"/><stop stop-opacity="1" stop-color="rgb(30.999756%, 66.654968%, 88.999939%)" offset="0.0234375"/><stop stop-opacity="1" stop-color="rgb(30.999756%, 66.27655%, 88.798523%)" offset="0.0273437"/><stop stop-opacity="1" stop-color="rgb(30.999756%, 65.899658%, 88.598633%)" offset="0.03125"/><stop stop-opacity="1" stop-color="rgb(30.799866%, 65.699768%, 88.398743%)" offset="0.0351562"/><stop stop-opacity="1" stop-color="rgb(30.599976%, 65.499878%, 88.198853%)" offset="0.0390625"/><stop stop-opacity="1" stop-color="rgb(30.599976%, 65.306091%, 88.005066%)" offset="0.046875"/><stop stop-opacity="1" stop-color="rgb(30.599976%, 64.92157%, 87.805176%)" offset="0.0546875"/><stop stop-opacity="1" stop-color="rgb(30.599976%, 64.5401%, 87.649536%)" offset="0.0625"/><stop stop-opacity="1" stop-color="rgb(30.383301%, 64.108276%, 87.298584%)" offset="0.0664062"/><stop stop-opacity="1" stop-color="rgb(30.168152%, 63.867188%, 87.098694%)" offset="0.0703125"/><stop stop-opacity="1" stop-color="rgb(29.983521%, 63.676453%, 87.09259%)" offset="0.078125"/><stop stop-opacity="1" stop-color="rgb(29.798889%, 63.096619%, 86.8927%)" offset="0.0820312"/><stop stop-opacity="1" stop-color="rgb(29.798889%, 62.705994%, 86.698914%)" offset="0.0859375"/><stop stop-opacity="1" stop-color="rgb(29.798889%, 62.561035%, 86.51123%)" offset="0.09375"/><stop stop-opacity="1" stop-color="rgb(29.598999%, 62.229919%, 86.31134%)" offset="0.0976563"/><stop stop-opacity="1" stop-color="rgb(29.399109%, 62.042236%, 86.299133%)" offset="0.101562"/><stop stop-opacity="1" stop-color="rgb(29.399109%, 61.820984%, 86.099243%)" offset="0.105469"/><stop stop-opacity="1" stop-color="rgb(29.399109%, 61.599731%, 85.899353%)" offset="0.109375"/><stop stop-opacity="1" stop-color="rgb(29.389954%, 61.399841%, 85.699463%)" offset="0.113281"/><stop stop-opacity="1" stop-color="rgb(29.380798%, 61.199951%, 85.499573%)" offset="0.117188"/><stop stop-opacity="1" stop-color="rgb(29.190063%, 60.998535%, 85.299683%)" offset="0.121094"/><stop stop-opacity="1" stop-color="rgb(28.999329%, 60.798645%, 85.099792%)" offset="0.125"/><stop stop-opacity="1" stop-color="rgb(28.999329%, 60.60791%, 85.099792%)" offset="0.132812"/><stop stop-opacity="1" stop-color="rgb(28.999329%, 60.20813%, 84.898376%)" offset="0.136719"/><stop stop-opacity="1" stop-color="rgb(28.999329%, 59.999084%, 84.698486%)" offset="0.140625"/><stop stop-opacity="1" stop-color="rgb(28.799438%, 59.776306%, 84.498596%)" offset="0.144531"/><stop stop-opacity="1" stop-color="rgb(28.599548%, 59.555054%, 84.298706%)" offset="0.148438"/><stop stop-opacity="1" stop-color="rgb(28.399658%, 59.176636%, 84.286499%)" offset="0.152344"/><stop stop-opacity="1" stop-color="rgb(28.199768%, 58.799744%, 84.274292%)" offset="0.15625"/><stop stop-opacity="1" stop-color="rgb(28.199768%, 58.599854%, 84.086609%)" offset="0.160156"/><stop stop-opacity="1" stop-color="rgb(28.199768%, 58.399963%, 83.898926%)" offset="0.164062"/><stop stop-opacity="1" stop-color="rgb(28.199768%, 58.206177%, 83.705139%)" offset="0.171875"/><stop stop-opacity="1" stop-color="rgb(28.199768%, 57.821655%, 83.505249%)" offset="0.179687"/><stop stop-opacity="1" stop-color="rgb(27.999878%, 57.48291%, 83.299255%)" offset="0.183594"/><stop stop-opacity="1" stop-color="rgb(27.799988%, 57.336426%, 83.099365%)" offset="0.1875"/><stop stop-opacity="1" stop-color="rgb(27.799988%, 57.116699%, 82.899475%)" offset="0.191406"/><stop stop-opacity="1" stop-color="rgb(27.799988%, 56.898499%, 82.699585%)" offset="0.195313"/><stop stop-opacity="1" stop-color="rgb(27.799988%, 56.698608%, 82.695007%)" offset="0.199219"/><stop stop-opacity="1" stop-color="rgb(27.799988%, 56.498718%, 82.69043%)" offset="0.203125"/><stop stop-opacity="1" stop-color="rgb(27.651978%, 56.30188%, 82.543945%)" offset="0.207031"/><stop stop-opacity="1" stop-color="rgb(27.503967%, 56.105042%, 82.398987%)" offset="0.210938"/><stop stop-opacity="1" stop-color="rgb(27.500916%, 55.9021%, 82.199097%)" offset="0.214844"/><stop stop-opacity="1" stop-color="rgb(27.49939%, 55.699158%, 81.999207%)" offset="0.21875"/><stop stop-opacity="1" stop-color="rgb(27.49939%, 55.499268%, 81.820679%)" offset="0.222656"/><stop stop-opacity="1" stop-color="rgb(27.49939%, 55.299377%, 81.643677%)" offset="0.226562"/><stop stop-opacity="1" stop-color="rgb(27.2995%, 55.079651%, 81.602478%)" offset="0.230469"/><stop stop-opacity="1" stop-color="rgb(27.099609%, 54.86145%, 81.561279%)" offset="0.234375"/><stop stop-opacity="1" stop-color="rgb(27.090454%, 54.670715%, 81.3797%)" offset="0.242188"/><stop stop-opacity="1" stop-color="rgb(26.890564%, 54.289246%, 81.199646%)" offset="0.25"/><stop stop-opacity="1" stop-color="rgb(26.699829%, 53.898621%, 80.999756%)" offset="0.253906"/><stop stop-opacity="1" stop-color="rgb(26.699829%, 53.69873%, 80.799866%)" offset="0.257812"/><stop stop-opacity="1" stop-color="rgb(26.699829%, 53.49884%, 80.618286%)" offset="0.261719"/><stop stop-opacity="1" stop-color="rgb(26.699829%, 53.29895%, 80.436707%)" offset="0.265625"/><stop stop-opacity="1" stop-color="rgb(26.676941%, 53.076172%, 80.395508%)" offset="0.269531"/><stop stop-opacity="1" stop-color="rgb(26.655579%, 52.854919%, 80.355835%)" offset="0.273438"/><stop stop-opacity="1" stop-color="rgb(26.477051%, 52.526855%, 80.1651%)" offset="0.277344"/><stop stop-opacity="1" stop-color="rgb(26.298523%, 52.198792%, 79.974365%)" offset="0.28125"/><stop stop-opacity="1" stop-color="rgb(26.298523%, 51.998901%, 79.78363%)" offset="0.285156"/><stop stop-opacity="1" stop-color="rgb(26.298523%, 51.799011%, 79.592896%)" offset="0.289062"/><stop stop-opacity="1" stop-color="rgb(26.104736%, 51.605225%, 79.396057%)" offset="0.292969"/><stop stop-opacity="1" stop-color="rgb(25.912476%, 51.411438%, 79.199219%)" offset="0.296875"/><stop stop-opacity="1" stop-color="rgb(25.904846%, 51.220703%, 79.199219%)" offset="0.304688"/><stop stop-opacity="1" stop-color="rgb(25.723267%, 50.839233%, 78.999329%)" offset="0.308594"/><stop stop-opacity="1" stop-color="rgb(25.549316%, 50.650024%, 78.799438%)" offset="0.3125"/><stop stop-opacity="1" stop-color="rgb(25.523376%, 50.424194%, 78.599548%)" offset="0.316406"/><stop stop-opacity="1" stop-color="rgb(25.498962%, 50.19989%, 78.399658%)" offset="0.320312"/><stop stop-opacity="1" stop-color="rgb(25.498962%, 50.193787%, 78.399658%)" offset="0.328125"/><stop stop-opacity="1" stop-color="rgb(25.498962%, 49.992371%, 78.20282%)" offset="0.332031"/><stop stop-opacity="1" stop-color="rgb(25.498962%, 49.798584%, 78.005981%)" offset="0.335938"/><stop stop-opacity="1" stop-color="rgb(25.311279%, 49.598694%, 78.00293%)" offset="0.339844"/><stop stop-opacity="1" stop-color="rgb(25.125122%, 49.398804%, 77.999878%)" offset="0.34375"/><stop stop-opacity="1" stop-color="rgb(25.111389%, 49.198914%, 77.798462%)" offset="0.347656"/><stop stop-opacity="1" stop-color="rgb(25.099182%, 48.999023%, 77.598572%)" offset="0.351562"/><stop stop-opacity="1" stop-color="rgb(25.099182%, 48.780823%, 77.449036%)" offset="0.355469"/><stop stop-opacity="1" stop-color="rgb(25.099182%, 48.562622%, 77.2995%)" offset="0.359375"/><stop stop-opacity="1" stop-color="rgb(25.090027%, 48.181152%, 77.099609%)" offset="0.363281"/><stop stop-opacity="1" stop-color="rgb(25.080872%, 47.799683%, 76.899719%)" offset="0.367188"/><stop stop-opacity="1" stop-color="rgb(24.890137%, 47.648621%, 76.899719%)" offset="0.375"/><stop stop-opacity="1" stop-color="rgb(24.508667%, 47.499084%, 76.699829%)" offset="0.378906"/><stop stop-opacity="1" stop-color="rgb(24.317932%, 47.499084%, 76.499939%)" offset="0.382812"/><stop stop-opacity="1" stop-color="rgb(24.308777%, 47.299194%, 76.318359%)" offset="0.386719"/><stop stop-opacity="1" stop-color="rgb(24.299622%, 47.099304%, 76.13678%)" offset="0.390625"/><stop stop-opacity="1" stop-color="rgb(24.299622%, 46.876526%, 76.116943%)" offset="0.394531"/><stop stop-opacity="1" stop-color="rgb(24.299622%, 46.655273%, 76.098633%)" offset="0.398438"/><stop stop-opacity="1" stop-color="rgb(24.299622%, 46.464539%, 75.898743%)" offset="0.402344"/><stop stop-opacity="1" stop-color="rgb(24.299622%, 46.273804%, 75.698853%)" offset="0.40625"/><stop stop-opacity="1" stop-color="rgb(24.29657%, 46.083069%, 75.695801%)" offset="0.414062"/><stop stop-opacity="1" stop-color="rgb(24.09668%, 45.695496%, 75.495911%)" offset="0.417969"/><stop stop-opacity="1" stop-color="rgb(23.899841%, 45.498657%, 75.299072%)" offset="0.421875"/><stop stop-opacity="1" stop-color="rgb(23.899841%, 45.298767%, 75.114441%)" offset="0.425781"/><stop stop-opacity="1" stop-color="rgb(23.899841%, 45.098877%, 74.931335%)" offset="0.429688"/><stop stop-opacity="1" stop-color="rgb(23.899841%, 44.898987%, 74.740601%)" offset="0.433594"/><stop stop-opacity="1" stop-color="rgb(23.899841%, 44.699097%, 74.549866%)" offset="0.4375"/><stop stop-opacity="1" stop-color="rgb(23.883057%, 44.483948%, 74.508667%)" offset="0.441406"/><stop stop-opacity="1" stop-color="rgb(23.867798%, 44.268799%, 74.468994%)" offset="0.445312"/><stop stop-opacity="1" stop-color="rgb(23.683167%, 44.078064%, 74.284363%)" offset="0.453125"/><stop stop-opacity="1" stop-color="rgb(23.301697%, 43.693542%, 73.902893%)" offset="0.457031"/><stop stop-opacity="1" stop-color="rgb(23.106384%, 43.499756%, 73.706055%)" offset="0.460938"/><stop stop-opacity="1" stop-color="rgb(23.101807%, 43.312073%, 73.703003%)" offset="0.46875"/><stop stop-opacity="1" stop-color="rgb(23.098755%, 42.933655%, 73.521423%)" offset="0.476562"/><stop stop-opacity="1" stop-color="rgb(23.098755%, 42.570496%, 73.301697%)" offset="0.484375"/><stop stop-opacity="1" stop-color="rgb(23.098755%, 42.199707%, 73.080444%)" offset="0.488281"/><stop stop-opacity="1" stop-color="rgb(23.098755%, 41.999817%, 72.898865%)" offset="0.492188"/><stop stop-opacity="1" stop-color="rgb(23.098755%, 41.799927%, 72.698975%)" offset="0.496094"/><stop stop-opacity="1" stop-color="rgb(23.098755%, 41.600037%, 72.499084%)" offset="0.5"/><stop stop-opacity="1" stop-color="rgb(22.898865%, 41.409302%, 72.499084%)" offset="0.503906"/><stop stop-opacity="1" stop-color="rgb(22.698975%, 41.218567%, 72.499084%)" offset="0.507812"/><stop stop-opacity="1" stop-color="rgb(22.698975%, 41.027832%, 72.348022%)" offset="0.515625"/><stop stop-opacity="1" stop-color="rgb(22.549438%, 40.795898%, 71.998596%)" offset="0.519531"/><stop stop-opacity="1" stop-color="rgb(22.399902%, 40.756226%, 71.798706%)" offset="0.523437"/><stop stop-opacity="1" stop-color="rgb(22.399902%, 40.565491%, 71.786499%)" offset="0.53125"/><stop stop-opacity="1" stop-color="rgb(22.399902%, 40.184021%, 71.586609%)" offset="0.539062"/><stop stop-opacity="1" stop-color="rgb(22.399902%, 39.796448%, 71.205139%)" offset="0.542969"/><stop stop-opacity="1" stop-color="rgb(22.399902%, 39.599609%, 71.012878%)" offset="0.546875"/><stop stop-opacity="1" stop-color="rgb(22.198486%, 39.399719%, 71.005249%)" offset="0.550781"/><stop stop-opacity="1" stop-color="rgb(21.998596%, 39.199829%, 70.999146%)" offset="0.554688"/><stop stop-opacity="1" stop-color="rgb(21.998596%, 38.998413%, 70.799255%)" offset="0.558594"/><stop stop-opacity="1" stop-color="rgb(21.998596%, 38.798523%, 70.599365%)" offset="0.5625"/><stop stop-opacity="1" stop-color="rgb(21.998596%, 38.598633%, 70.584106%)" offset="0.566406"/><stop stop-opacity="1" stop-color="rgb(21.998596%, 38.398743%, 70.568848%)" offset="0.570312"/><stop stop-opacity="1" stop-color="rgb(21.998596%, 38.198853%, 70.384216%)" offset="0.574219"/><stop stop-opacity="1" stop-color="rgb(21.998596%, 37.998962%, 70.199585%)" offset="0.578125"/><stop stop-opacity="1" stop-color="rgb(21.998596%, 37.802124%, 70.002747%)" offset="0.582031"/><stop stop-opacity="1" stop-color="rgb(21.998596%, 37.605286%, 69.805908%)" offset="0.585938"/><stop stop-opacity="1" stop-color="rgb(21.798706%, 37.602234%, 69.802856%)" offset="0.589844"/><stop stop-opacity="1" stop-color="rgb(21.598816%, 37.599182%, 69.799805%)" offset="0.59375"/><stop stop-opacity="1" stop-color="rgb(21.420288%, 37.44812%, 69.598389%)" offset="0.597656"/><stop stop-opacity="1" stop-color="rgb(21.243286%, 37.298584%, 69.398499%)" offset="0.601563"/><stop stop-opacity="1" stop-color="rgb(21.220398%, 37.080383%, 69.198608%)" offset="0.605469"/><stop stop-opacity="1" stop-color="rgb(21.199036%, 36.862183%, 68.998718%)" offset="0.609375"/><stop stop-opacity="1" stop-color="rgb(21.199036%, 36.671448%, 68.798828%)" offset="0.613281"/><stop stop-opacity="1" stop-color="rgb(21.199036%, 36.480713%, 68.598938%)" offset="0.617188"/><stop stop-opacity="1" stop-color="rgb(21.199036%, 36.289978%, 68.598938%)" offset="0.625"/><stop stop-opacity="1" stop-color="rgb(21.199036%, 35.908508%, 68.408203%)" offset="0.632813"/><stop stop-opacity="1" stop-color="rgb(21.199036%, 35.527039%, 68.208313%)" offset="0.640625"/><stop stop-opacity="1" stop-color="rgb(20.999146%, 35.296631%, 67.999268%)" offset="0.644531"/><stop stop-opacity="1" stop-color="rgb(20.799255%, 35.255432%, 67.799377%)" offset="0.648438"/><stop stop-opacity="1" stop-color="rgb(20.799255%, 35.064697%, 67.790222%)" offset="0.65625"/><stop stop-opacity="1" stop-color="rgb(20.799255%, 34.686279%, 67.63916%)" offset="0.664063"/><stop stop-opacity="1" stop-color="rgb(20.799255%, 34.30481%, 67.498779%)" offset="0.671875"/><stop stop-opacity="1" stop-color="rgb(20.599365%, 33.921814%, 67.298889%)" offset="0.675781"/><stop stop-opacity="1" stop-color="rgb(20.399475%, 33.731079%, 67.098999%)" offset="0.679687"/><stop stop-opacity="1" stop-color="rgb(20.399475%, 33.714294%, 66.899109%)" offset="0.683594"/><stop stop-opacity="1" stop-color="rgb(20.399475%, 33.699036%, 66.699219%)" offset="0.6875"/><stop stop-opacity="1" stop-color="rgb(20.399475%, 33.483887%, 66.499329%)" offset="0.691406"/><stop stop-opacity="1" stop-color="rgb(20.399475%, 33.268738%, 66.299438%)" offset="0.695312"/><stop stop-opacity="1" stop-color="rgb(20.393372%, 33.078003%, 66.293335%)" offset="0.703125"/><stop stop-opacity="1" stop-color="rgb(20.193481%, 32.693481%, 66.093445%)" offset="0.710937"/><stop stop-opacity="1" stop-color="rgb(19.999695%, 32.359314%, 65.899658%)" offset="0.71875"/><stop stop-opacity="1" stop-color="rgb(19.999695%, 32.03125%, 65.699768%)" offset="0.722656"/><stop stop-opacity="1" stop-color="rgb(19.999695%, 31.843567%, 65.499878%)" offset="0.726562"/><stop stop-opacity="1" stop-color="rgb(19.981384%, 31.802368%, 65.298462%)" offset="0.730469"/><stop stop-opacity="1" stop-color="rgb(19.963074%, 31.762695%, 65.098572%)" offset="0.734375"/><stop stop-opacity="1" stop-color="rgb(19.781494%, 31.57196%, 65.089417%)" offset="0.742188"/><stop stop-opacity="1" stop-color="rgb(19.599915%, 31.190491%, 64.889526%)" offset="0.75"/><stop stop-opacity="1" stop-color="rgb(19.599915%, 30.809021%, 64.508057%)" offset="0.757812"/><stop stop-opacity="1" stop-color="rgb(19.599915%, 30.427551%, 64.308167%)" offset="0.765625"/><stop stop-opacity="1" stop-color="rgb(19.577026%, 30.01709%, 64.099121%)" offset="0.769531"/><stop stop-opacity="1" stop-color="rgb(19.555664%, 29.798889%, 63.899231%)" offset="0.773438"/><stop stop-opacity="1" stop-color="rgb(19.377136%, 29.786682%, 63.887024%)" offset="0.78125"/><stop stop-opacity="1" stop-color="rgb(19.198608%, 29.586792%, 63.687134%)" offset="0.789063"/><stop stop-opacity="1" stop-color="rgb(19.198608%, 29.205322%, 63.499451%)" offset="0.796875"/><stop stop-opacity="1" stop-color="rgb(19.198608%, 29.005432%, 63.299561%)" offset="0.800781"/><stop stop-opacity="1" stop-color="rgb(19.198608%, 28.999329%, 63.09967%)" offset="0.804688"/><stop stop-opacity="1" stop-color="rgb(19.198608%, 28.799438%, 62.924194%)" offset="0.808594"/><stop stop-opacity="1" stop-color="rgb(19.198608%, 28.599548%, 62.750244%)" offset="0.8125"/><stop stop-opacity="1" stop-color="rgb(18.998718%, 28.384399%, 62.713623%)" offset="0.816406"/><stop stop-opacity="1" stop-color="rgb(18.798828%, 28.16925%, 62.677002%)" offset="0.820313"/><stop stop-opacity="1" stop-color="rgb(18.798828%, 27.984619%, 62.532043%)" offset="0.828125"/><stop stop-opacity="1" stop-color="rgb(18.798828%, 27.648926%, 62.193298%)" offset="0.84375"/><stop stop-opacity="1" stop-color="rgb(18.6203%, 27.2995%, 61.799622%)" offset="0.847656"/><stop stop-opacity="1" stop-color="rgb(18.443298%, 27.099609%, 61.599731%)" offset="0.851562"/><stop stop-opacity="1" stop-color="rgb(18.42041%, 26.899719%, 61.581421%)" offset="0.855469"/><stop stop-opacity="1" stop-color="rgb(18.399048%, 26.699829%, 61.56311%)" offset="0.859375"/><stop stop-opacity="1" stop-color="rgb(18.399048%, 26.690674%, 61.381531%)" offset="0.867187"/><stop stop-opacity="1" stop-color="rgb(18.399048%, 26.489258%, 61.199951%)" offset="0.875"/><stop stop-opacity="1" stop-color="rgb(18.399048%, 26.098633%, 60.998535%)" offset="0.878906"/><stop stop-opacity="1" stop-color="rgb(18.399048%, 25.898743%, 60.798645%)" offset="0.882812"/><stop stop-opacity="1" stop-color="rgb(18.399048%, 25.698853%, 60.617065%)" offset="0.886719"/><stop stop-opacity="1" stop-color="rgb(18.399048%, 25.498962%, 60.437012%)" offset="0.890625"/><stop stop-opacity="1" stop-color="rgb(18.199158%, 25.299072%, 60.395813%)" offset="0.894531"/><stop stop-opacity="1" stop-color="rgb(17.999268%, 25.099182%, 60.35614%)" offset="0.898437"/><stop stop-opacity="1" stop-color="rgb(17.999268%, 25.086975%, 60.177612%)" offset="0.90625"/><stop stop-opacity="1" stop-color="rgb(17.999268%, 24.887085%, 59.799194%)" offset="0.910156"/><stop stop-opacity="1" stop-color="rgb(17.999268%, 24.699402%, 59.599304%)" offset="0.914062"/><stop stop-opacity="1" stop-color="rgb(17.999268%, 24.505615%, 59.599304%)" offset="0.921875"/><stop stop-opacity="1" stop-color="rgb(17.999268%, 24.305725%, 59.414673%)" offset="0.929688"/><stop stop-opacity="1" stop-color="rgb(17.823792%, 24.099731%, 59.214783%)" offset="0.933594"/><stop stop-opacity="1" stop-color="rgb(17.649841%, 23.899841%, 59.199524%)" offset="0.9375"/><stop stop-opacity="1" stop-color="rgb(17.623901%, 23.698425%, 58.999634%)" offset="0.941406"/><stop stop-opacity="1" stop-color="rgb(17.599487%, 23.498535%, 58.799744%)" offset="0.945312"/><stop stop-opacity="1" stop-color="rgb(17.599487%, 23.298645%, 58.599854%)" offset="0.949219"/><stop stop-opacity="1" stop-color="rgb(17.599487%, 23.098755%, 58.399963%)" offset="0.953125"/><stop stop-opacity="1" stop-color="rgb(17.599487%, 23.098755%, 58.399963%)" offset="0.960938"/><stop stop-opacity="1" stop-color="rgb(17.459106%, 22.898865%, 58.21228%)" offset="0.964844"/><stop stop-opacity="1" stop-color="rgb(17.318726%, 22.698975%, 58.024597%)" offset="0.96875"/><stop stop-opacity="1" stop-color="rgb(17.308044%, 22.564697%, 58.010864%)" offset="0.976563"/><stop stop-opacity="1" stop-color="rgb(17.298889%, 22.415161%, 57.798767%)" offset="0.980469"/><stop stop-opacity="1" stop-color="rgb(17.298889%, 22.399902%, 57.598877%)" offset="0.984375"/><stop stop-opacity="1" stop-color="rgb(17.298889%, 22.198486%, 57.591248%)" offset="0.988281"/><stop stop-opacity="1" stop-color="rgb(17.298889%, 21.998596%, 57.585144%)" offset="0.992188"/><stop stop-opacity="1" stop-color="rgb(17.298889%, 21.998596%, 57.441711%)" offset="1"/></linearGradient></defs><g clip-path="url(#c0f138cad7)"><g clip-path="url(#f798ada472)"><g clip-path="url(#020c41f67e)"><path fill="url(#3bcf43c1cf)" d="M 53.09375 105.855469 L 53.09375 192.039062 L 321.59375 192.039062 L 321.59375 105.855469 Z M 53.09375 105.855469 " fill-rule="nonzero"/></g></g></g><g clip-path="url(#e66af21d36)"><g clip-path="url(#f36cf2d7be)"><g clip-path="url(#b5a918db32)"><path fill="url(#273ce6fb52)" d="M 148.613281 110.082031 L 148.613281 187.8125 L 226.074219 187.8125 L 226.074219 110.082031 Z M 148.613281 110.082031 " fill-rule="nonzero"/></g></g></g><g fill="#225aa5" fill-opacity="1"><g transform="translate(168.91323, 164.465472)"><g><path d="M 30.964844 -32.378906 L 27.46875 -32.378906 C 27.113281 -32.378906 26.367188 -32.261719 26.367188 -31.003906 L 26.367188 -7.386719 C 26.367188 -7.347656 26.367188 -7.347656 26.367188 -7.308594 L 26.171875 -7.308594 C 26.132812 -7.308594 26.09375 -7.308594 26.054688 -7.425781 L 13.636719 -29.511719 C 13.320312 -30.101562 13.046875 -30.574219 12.769531 -30.925781 C 12.496094 -31.320312 12.222656 -31.632812 11.945312 -31.828125 C 11.632812 -32.066406 11.277344 -32.222656 10.84375 -32.300781 C 10.453125 -32.339844 9.980469 -32.378906 9.46875 -32.378906 L 6.523438 -32.378906 C 5.382812 -32.378906 4.519531 -31.988281 3.96875 -31.28125 C 3.417969 -30.53125 3.144531 -29.234375 3.144531 -27.3125 L 3.144531 -1.335938 C 3.144531 -0.117188 3.929688 0.0390625 4.285156 0.0390625 L 7.78125 0.0390625 C 8.132812 0.0390625 8.882812 -0.117188 8.882812 -1.335938 L 8.882812 -24.953125 C 8.882812 -24.992188 8.882812 -25.03125 8.882812 -25.03125 L 9.078125 -25.03125 C 9.078125 -25.03125 9.117188 -25.03125 9.195312 -24.914062 L 21.652344 -2.828125 C 21.964844 -2.199219 22.28125 -1.730469 22.554688 -1.375 C 22.832031 -0.980469 23.105469 -0.707031 23.421875 -0.511719 C 23.734375 -0.273438 24.089844 -0.15625 24.480469 -0.078125 C 24.835938 0 25.265625 0.0390625 25.816406 0.0390625 L 28.6875 0.0390625 C 29.824219 0.0390625 30.691406 -0.355469 31.242188 -1.101562 C 31.789062 -1.808594 32.066406 -3.105469 32.066406 -5.03125 L 32.066406 -31.003906 C 32.066406 -32.261719 31.28125 -32.378906 30.964844 -32.378906 Z M 30.964844 -32.378906 "/></g></g></g><g fill="#225aa5" fill-opacity="1"><g transform="translate(66.77411, 226.929178)"><g><path d="M 24.945312 -18.386719 L 24.945312 -20.195312 C 24.945312 -22.296875 24.527344 -23.914062 23.6875 -24.980469 C 22.847656 -26.078125 21.425781 -26.628906 19.453125 -26.628906 L 5.171875 -26.628906 L 5.171875 -26.59375 C 4.234375 -26.53125 3.425781 -26.011719 2.941406 -25.238281 C 2.8125 -24.980469 2.683594 -24.6875 2.617188 -24.429688 L 2.585938 -2.359375 C 2.648438 -2.003906 2.777344 -1.648438 2.941406 -1.355469 C 3.457031 -0.484375 4.394531 0.03125 5.398438 0.03125 L 19.9375 0.03125 C 20.90625 0.03125 21.714844 -0.128906 22.363281 -0.453125 C 23.039062 -0.777344 23.589844 -1.226562 23.976562 -1.84375 C 24.398438 -2.421875 24.65625 -3.132812 24.851562 -3.976562 C 25.011719 -4.78125 25.109375 -5.71875 25.109375 -6.722656 L 25.109375 -8.886719 C 25.109375 -11.019531 24.496094 -12.636719 23.332031 -13.703125 C 24.429688 -14.800781 24.945312 -16.382812 24.945312 -18.386719 Z M 7.335938 -4.945312 L 7.335938 -21.652344 C 7.335938 -21.78125 7.367188 -21.84375 7.398438 -21.84375 L 18.613281 -21.84375 C 19.226562 -21.84375 19.679688 -21.683594 19.9375 -21.390625 C 20.195312 -21.101562 20.324219 -20.585938 20.324219 -19.90625 L 20.324219 -17.675781 C 20.324219 -17.0625 20.195312 -16.578125 19.90625 -16.253906 C 19.648438 -15.964844 19.097656 -15.800781 18.257812 -15.800781 L 11.988281 -15.800781 C 11.40625 -15.800781 10.921875 -15.316406 10.921875 -14.734375 L 10.921875 -12.085938 C 10.921875 -11.472656 11.40625 -11.019531 11.988281 -11.019531 L 18.257812 -11.019531 C 19.097656 -11.019531 19.648438 -10.824219 19.9375 -10.503906 C 20.195312 -10.179688 20.359375 -9.664062 20.359375 -8.953125 L 20.359375 -6.753906 C 20.359375 -6.011719 20.230469 -5.492188 19.96875 -5.203125 C 19.710938 -4.910156 19.257812 -4.78125 18.613281 -4.78125 L 7.367188 -4.78125 C 7.367188 -4.78125 7.335938 -4.816406 7.335938 -4.945312 Z M 7.335938 -4.945312 "/></g></g></g><g fill="#225aa5" fill-opacity="1"><g transform="translate(92.553451, 226.929178)"><g><path d="M 21.230469 -4.78125 L 10.730469 -4.78125 C 10.050781 -4.78125 9.5 -4.847656 9.046875 -5.007812 C 8.660156 -5.136719 8.335938 -5.363281 8.109375 -5.71875 C 7.851562 -6.074219 7.660156 -6.558594 7.5625 -7.140625 C 7.433594 -7.789062 7.398438 -8.597656 7.398438 -9.566406 L 7.398438 -25.496094 C 7.398438 -26.53125 6.753906 -26.628906 6.496094 -26.628906 L 3.523438 -26.628906 C 3.230469 -26.628906 2.585938 -26.53125 2.585938 -25.496094 L 2.585938 -10.113281 C 2.585938 -8.304688 2.746094 -6.753906 3.039062 -5.492188 C 3.328125 -4.199219 3.78125 -3.132812 4.425781 -2.328125 C 5.074219 -1.488281 5.914062 -0.871094 6.949219 -0.515625 C 7.917969 -0.160156 9.144531 0.03125 10.566406 0.03125 L 21.230469 0.03125 C 21.523438 0.03125 22.136719 -0.0976562 22.136719 -1.097656 L 22.136719 -3.652344 C 22.136719 -4.652344 21.523438 -4.78125 21.230469 -4.78125 Z M 21.230469 -4.78125 "/></g></g></g><g fill="#225aa5" fill-opacity="1"><g transform="translate(115.360589, 226.929178)"><g><path d="M 24.589844 -24.269531 C 23.945312 -25.078125 23.105469 -25.691406 22.070312 -26.078125 C 21.070312 -26.433594 19.839844 -26.628906 18.417969 -26.628906 L 10.535156 -26.628906 C 9.113281 -26.628906 7.917969 -26.433594 6.914062 -26.078125 C 5.882812 -25.691406 5.042969 -25.078125 4.394531 -24.269531 C 3.78125 -23.460938 3.296875 -22.394531 3.003906 -21.101562 C 2.714844 -19.839844 2.585938 -18.324219 2.585938 -16.511719 L 2.585938 -10.113281 C 2.585938 -8.304688 2.714844 -6.753906 3.003906 -5.492188 C 3.296875 -4.199219 3.78125 -3.132812 4.394531 -2.328125 C 5.042969 -1.488281 5.882812 -0.871094 6.914062 -0.515625 C 7.886719 -0.160156 9.113281 0.03125 10.535156 0.03125 L 18.417969 0.03125 C 19.839844 0.03125 21.070312 -0.160156 22.070312 -0.515625 C 23.105469 -0.871094 23.945312 -1.488281 24.589844 -2.292969 C 25.238281 -3.132812 25.691406 -4.199219 25.980469 -5.492188 C 26.238281 -6.753906 26.402344 -8.304688 26.402344 -10.113281 L 26.402344 -16.511719 C 26.402344 -18.289062 26.238281 -19.839844 25.980469 -21.101562 C 25.691406 -22.394531 25.238281 -23.460938 24.589844 -24.269531 Z M 21.585938 -17.0625 L 21.585938 -9.53125 C 21.585938 -8.597656 21.554688 -7.789062 21.425781 -7.140625 C 21.328125 -6.558594 21.132812 -6.042969 20.875 -5.71875 C 20.648438 -5.363281 20.324219 -5.136719 19.90625 -5.007812 C 19.484375 -4.847656 18.9375 -4.78125 18.257812 -4.78125 L 10.695312 -4.78125 C 10.019531 -4.78125 9.46875 -4.847656 9.046875 -5.007812 C 8.628906 -5.136719 8.304688 -5.363281 8.078125 -5.71875 C 7.820312 -6.042969 7.660156 -6.558594 7.53125 -7.140625 C 7.433594 -7.789062 7.367188 -8.597656 7.367188 -9.53125 L 7.367188 -17.0625 C 7.367188 -18 7.433594 -18.808594 7.53125 -19.453125 C 7.660156 -20.066406 7.820312 -20.550781 8.078125 -20.90625 C 8.304688 -21.230469 8.628906 -21.457031 9.046875 -21.617188 C 9.46875 -21.746094 10.019531 -21.84375 10.695312 -21.84375 L 18.257812 -21.84375 C 18.9375 -21.84375 19.484375 -21.746094 19.90625 -21.617188 C 20.324219 -21.457031 20.648438 -21.230469 20.875 -20.90625 C 21.132812 -20.550781 21.328125 -20.066406 21.425781 -19.453125 C 21.554688 -18.808594 21.585938 -18 21.585938 -17.0625 Z M 21.585938 -17.0625 "/></g></g></g><g fill="#225aa5" fill-opacity="1"><g transform="translate(142.432193, 226.929178)"><g><path d="M 22.328125 -26.628906 L 10.566406 -26.628906 C 9.144531 -26.628906 7.917969 -26.433594 6.914062 -26.078125 C 5.882812 -25.691406 5.042969 -25.078125 4.425781 -24.269531 C 3.78125 -23.460938 3.296875 -22.394531 3.003906 -21.101562 C 2.714844 -19.839844 2.585938 -18.289062 2.585938 -16.511719 L 2.585938 -10.113281 C 2.585938 -8.304688 2.714844 -6.753906 3.003906 -5.460938 C 3.296875 -4.199219 3.78125 -3.132812 4.425781 -2.292969 C 5.074219 -1.488281 5.914062 -0.871094 6.914062 -0.515625 C 7.917969 -0.160156 9.144531 0.03125 10.566406 0.03125 L 22.328125 0.03125 C 22.589844 0.03125 23.234375 -0.0976562 23.234375 -1.097656 L 23.234375 -3.652344 C 23.234375 -4.652344 22.589844 -4.78125 22.328125 -4.78125 L 10.730469 -4.78125 C 10.050781 -4.78125 9.46875 -4.847656 9.046875 -5.007812 C 8.628906 -5.136719 8.335938 -5.363281 8.078125 -5.71875 C 7.820312 -6.042969 7.660156 -6.527344 7.53125 -7.140625 C 7.433594 -7.789062 7.367188 -8.597656 7.367188 -9.566406 L 7.367188 -17.09375 C 7.367188 -18.0625 7.433594 -18.871094 7.53125 -19.484375 C 7.660156 -20.101562 7.820312 -20.550781 8.078125 -20.90625 C 8.335938 -21.261719 8.628906 -21.488281 9.046875 -21.617188 C 9.46875 -21.78125 10.050781 -21.84375 10.730469 -21.84375 L 22.328125 -21.84375 C 22.589844 -21.84375 23.234375 -21.972656 23.234375 -23.007812 L 23.234375 -25.496094 C 23.234375 -26.5 22.589844 -26.628906 22.328125 -26.628906 Z M 22.328125 -26.628906 "/></g></g></g><g fill="#225aa5" fill-opacity="1"><g transform="translate(166.337748, 226.929178)"><g><path d="M 18.0625 -11.085938 C 17.417969 -12.152344 16.769531 -13.023438 16.125 -13.636719 C 16.320312 -13.894531 16.511719 -14.152344 16.738281 -14.476562 C 16.996094 -14.898438 17.289062 -15.382812 17.613281 -15.929688 L 22.945312 -25.300781 C 23.039062 -25.527344 23.074219 -25.789062 23.039062 -26.078125 C 22.945312 -26.433594 22.683594 -26.628906 22.296875 -26.628906 L 19.097656 -26.628906 C 18.742188 -26.628906 18.515625 -26.5625 18.386719 -26.433594 C 18.257812 -26.335938 18.128906 -26.207031 18.03125 -25.980469 L 13.152344 -17.351562 C 12.957031 -17.03125 12.765625 -16.769531 12.601562 -16.546875 C 12.441406 -16.351562 12.246094 -16.191406 12.085938 -16.09375 C 11.890625 -15.996094 11.664062 -15.929688 11.40625 -15.898438 C 11.148438 -15.867188 10.792969 -15.835938 10.375 -15.835938 L 7.398438 -15.835938 L 7.398438 -25.496094 C 7.398438 -26.53125 6.753906 -26.628906 6.496094 -26.628906 L 3.523438 -26.628906 C 3.265625 -26.628906 2.585938 -26.53125 2.585938 -25.496094 L 2.585938 -1.097656 C 2.585938 -0.0976562 3.265625 0.03125 3.523438 0.03125 L 6.496094 0.03125 C 6.753906 0.03125 7.398438 -0.0976562 7.398438 -1.097656 L 7.398438 -11.050781 L 10.664062 -11.050781 C 11.441406 -11.050781 12.019531 -10.953125 12.410156 -10.730469 C 12.765625 -10.535156 13.121094 -10.113281 13.476562 -9.46875 L 18.515625 -0.613281 C 18.613281 -0.421875 18.742188 -0.257812 18.871094 -0.160156 C 19 -0.03125 19.226562 0.03125 19.550781 0.03125 L 23.039062 0.03125 C 23.492188 0.03125 23.75 -0.226562 23.785156 -0.644531 C 23.816406 -0.96875 23.785156 -1.226562 23.65625 -1.390625 Z M 18.0625 -11.085938 "/></g></g></g><g fill="#225aa5" fill-opacity="1"><g transform="translate(190.824824, 226.929178)"><g><path d="M 22.328125 -26.628906 L 10.566406 -26.628906 C 9.144531 -26.628906 7.917969 -26.433594 6.914062 -26.078125 C 5.882812 -25.691406 5.042969 -25.078125 4.425781 -24.269531 C 3.78125 -23.460938 3.296875 -22.394531 3.003906 -21.101562 C 2.714844 -19.839844 2.585938 -18.289062 2.585938 -16.511719 L 2.585938 -10.113281 C 2.585938 -8.304688 2.714844 -6.753906 3.003906 -5.460938 C 3.296875 -4.199219 3.78125 -3.132812 4.425781 -2.292969 C 5.074219 -1.488281 5.914062 -0.871094 6.914062 -0.515625 C 7.917969 -0.160156 9.144531 0.03125 10.566406 0.03125 L 22.328125 0.03125 C 22.589844 0.03125 23.234375 -0.0976562 23.234375 -1.097656 L 23.234375 -3.652344 C 23.234375 -4.652344 22.589844 -4.78125 22.328125 -4.78125 L 10.730469 -4.78125 C 10.050781 -4.78125 9.46875 -4.847656 9.046875 -5.007812 C 8.628906 -5.136719 8.335938 -5.363281 8.078125 -5.71875 C 7.820312 -6.042969 7.660156 -6.527344 7.53125 -7.140625 C 7.433594 -7.789062 7.367188 -8.597656 7.367188 -9.566406 L 7.367188 -17.09375 C 7.367188 -18.0625 7.433594 -18.871094 7.53125 -19.484375 C 7.660156 -20.101562 7.820312 -20.550781 8.078125 -20.90625 C 8.335938 -21.261719 8.628906 -21.488281 9.046875 -21.617188 C 9.46875 -21.78125 10.050781 -21.84375 10.730469 -21.84375 L 22.328125 -21.84375 C 22.589844 -21.84375 23.234375 -21.972656 23.234375 -23.007812 L 23.234375 -25.496094 C 23.234375 -26.5 22.589844 -26.628906 22.328125 -26.628906 Z M 22.328125 -26.628906 "/></g></g></g><g fill="#225aa5" fill-opacity="1"><g transform="translate(214.730379, 226.929178)"><g><path d="M 23.460938 -26.628906 L 20.488281 -26.628906 C 20.230469 -26.628906 19.613281 -26.5 19.613281 -25.496094 L 19.613281 -15.835938 L 7.367188 -15.835938 L 7.367188 -25.496094 C 7.367188 -26.5 6.753906 -26.628906 6.464844 -26.628906 L 3.523438 -26.628906 C 3.230469 -26.628906 2.585938 -26.5 2.585938 -25.496094 L 2.585938 -1.097656 C 2.585938 -0.0976562 3.230469 0.03125 3.523438 0.03125 L 6.464844 0.03125 C 6.753906 0.03125 7.367188 -0.0976562 7.367188 -1.097656 L 7.367188 -11.050781 L 19.613281 -11.050781 L 19.613281 -1.097656 C 19.613281 -0.0976562 20.230469 0.03125 20.488281 0.03125 L 23.460938 0.03125 C 23.75 0.03125 24.398438 -0.0976562 24.398438 -1.097656 L 24.398438 -25.496094 C 24.398438 -26.5 23.75 -26.628906 23.460938 -26.628906 Z M 23.460938 -26.628906 "/></g></g></g><g fill="#225aa5" fill-opacity="1"><g transform="translate(239.798977, 226.929178)"><g><path d="M 19.90625 -23.621094 C 19.839844 -23.785156 19.777344 -23.976562 19.710938 -24.105469 C 19.195312 -25.789062 17.644531 -26.984375 15.867188 -26.984375 C 15.058594 -26.984375 14.28125 -26.757812 13.636719 -26.304688 C 13.441406 -26.207031 13.28125 -26.078125 13.152344 -25.980469 C 12.667969 -25.5625 12.183594 -24.785156 11.730469 -23.621094 L 2.714844 -1.226562 C 2.617188 -0.9375 2.585938 -0.644531 2.648438 -0.453125 C 2.683594 -0.257812 2.84375 0.03125 3.359375 0.03125 L 6.914062 0.03125 C 7.335938 0.03125 7.660156 -0.226562 7.820312 -0.644531 L 9.664062 -5.265625 L 16.738281 -5.265625 C 17.09375 -5.265625 17.417969 -5.429688 17.578125 -5.71875 C 17.773438 -5.976562 17.804688 -6.332031 17.707031 -6.65625 L 16.546875 -9.53125 C 16.382812 -9.921875 16.027344 -10.179688 15.609375 -10.179688 L 11.601562 -10.179688 L 15.738281 -20.648438 C 15.769531 -20.714844 15.800781 -20.746094 15.800781 -20.746094 L 15.929688 -20.746094 C 15.929688 -20.746094 15.929688 -20.746094 15.964844 -20.679688 L 23.976562 -0.679688 C 24.140625 -0.226562 24.460938 0.03125 24.914062 0.03125 L 28.371094 0.03125 C 28.890625 0.03125 29.019531 -0.289062 29.082031 -0.453125 C 29.148438 -0.644531 29.117188 -0.9375 28.988281 -1.226562 Z M 19.90625 -23.621094 "/></g></g></g><g fill="#225aa5" fill-opacity="1"><g transform="translate(269.616639, 226.929178)"><g><path d="M 6.464844 -26.628906 L 3.488281 -26.628906 C 3.230469 -26.628906 2.585938 -26.5 2.585938 -25.496094 L 2.585938 -1.097656 C 2.585938 -0.0976562 3.230469 0.03125 3.488281 0.03125 L 6.464844 0.03125 C 6.722656 0.03125 7.367188 -0.0976562 7.367188 -1.097656 L 7.367188 -25.496094 C 7.367188 -26.5 6.722656 -26.628906 6.464844 -26.628906 Z M 6.464844 -26.628906 "/></g></g></g><g fill="#225aa5" fill-opacity="1"><g transform="translate(277.659655, 226.929178)"><g><path d="M 25.464844 -26.628906 L 22.589844 -26.628906 C 22.296875 -26.628906 21.683594 -26.53125 21.683594 -25.496094 L 21.683594 -6.074219 C 21.683594 -6.042969 21.683594 -6.042969 21.683594 -6.011719 L 21.523438 -6.011719 C 21.488281 -6.011719 21.457031 -6.011719 21.425781 -6.109375 L 11.214844 -24.269531 C 10.953125 -24.753906 10.730469 -25.140625 10.503906 -25.433594 C 10.277344 -25.753906 10.050781 -26.011719 9.824219 -26.175781 C 9.566406 -26.367188 9.273438 -26.5 8.917969 -26.5625 C 8.597656 -26.59375 8.207031 -26.628906 7.789062 -26.628906 L 5.363281 -26.628906 C 4.425781 -26.628906 3.714844 -26.304688 3.265625 -25.722656 C 2.8125 -25.109375 2.585938 -24.042969 2.585938 -22.457031 L 2.585938 -1.097656 C 2.585938 -0.0976562 3.230469 0.03125 3.523438 0.03125 L 6.398438 0.03125 C 6.6875 0.03125 7.304688 -0.0976562 7.304688 -1.097656 L 7.304688 -20.519531 C 7.304688 -20.550781 7.304688 -20.585938 7.304688 -20.585938 L 7.464844 -20.585938 C 7.464844 -20.585938 7.496094 -20.585938 7.5625 -20.488281 L 17.804688 -2.328125 C 18.0625 -1.808594 18.324219 -1.421875 18.546875 -1.132812 C 18.773438 -0.808594 19 -0.582031 19.257812 -0.421875 C 19.519531 -0.226562 19.808594 -0.128906 20.132812 -0.0664062 C 20.421875 0 20.777344 0.03125 21.230469 0.03125 L 23.589844 0.03125 C 24.527344 0.03125 25.238281 -0.289062 25.691406 -0.90625 C 26.144531 -1.488281 26.367188 -2.554688 26.367188 -4.136719 L 26.367188 -25.496094 C 26.367188 -26.53125 25.722656 -26.628906 25.464844 -26.628906 Z M 25.464844 -26.628906 "/></g></g></g><g fill="#225aa5" fill-opacity="1"><g transform="translate(121.98697, 257.580183)"><g><path d="M 25.464844 -26.628906 L 22.589844 -26.628906 C 22.296875 -26.628906 21.683594 -26.53125 21.683594 -25.496094 L 21.683594 -6.074219 C 21.683594 -6.042969 21.683594 -6.042969 21.683594 -6.011719 L 21.523438 -6.011719 C 21.488281 -6.011719 21.457031 -6.011719 21.425781 -6.109375 L 11.214844 -24.269531 C 10.953125 -24.753906 10.730469 -25.140625 10.503906 -25.433594 C 10.277344 -25.753906 10.050781 -26.011719 9.824219 -26.175781 C 9.566406 -26.367188 9.273438 -26.5 8.917969 -26.5625 C 8.597656 -26.59375 8.207031 -26.628906 7.789062 -26.628906 L 5.363281 -26.628906 C 4.425781 -26.628906 3.714844 -26.304688 3.265625 -25.722656 C 2.8125 -25.109375 2.585938 -24.042969 2.585938 -22.457031 L 2.585938 -1.097656 C 2.585938 -0.0976562 3.230469 0.03125 3.523438 0.03125 L 6.398438 0.03125 C 6.6875 0.03125 7.304688 -0.0976562 7.304688 -1.097656 L 7.304688 -20.519531 C 7.304688 -20.550781 7.304688 -20.585938 7.304688 -20.585938 L 7.464844 -20.585938 C 7.464844 -20.585938 7.496094 -20.585938 7.5625 -20.488281 L 17.804688 -2.328125 C 18.0625 -1.808594 18.324219 -1.421875 18.546875 -1.132812 C 18.773438 -0.808594 19 -0.582031 19.257812 -0.421875 C 19.519531 -0.226562 19.808594 -0.128906 20.132812 -0.0664062 C 20.421875 0 20.777344 0.03125 21.230469 0.03125 L 23.589844 0.03125 C 24.527344 0.03125 25.238281 -0.289062 25.691406 -0.90625 C 26.144531 -1.488281 26.367188 -2.554688 26.367188 -4.136719 L 26.367188 -25.496094 C 26.367188 -26.53125 25.722656 -26.628906 25.464844 -26.628906 Z M 25.464844 -26.628906 "/></g></g></g><g fill="#225aa5" fill-opacity="1"><g transform="translate(149.026273, 257.580183)"><g><path d="M 24.589844 -24.269531 C 23.945312 -25.078125 23.105469 -25.691406 22.070312 -26.078125 C 21.070312 -26.433594 19.839844 -26.628906 18.417969 -26.628906 L 10.535156 -26.628906 C 9.113281 -26.628906 7.917969 -26.433594 6.914062 -26.078125 C 5.882812 -25.691406 5.042969 -25.078125 4.394531 -24.269531 C 3.78125 -23.460938 3.296875 -22.394531 3.003906 -21.101562 C 2.714844 -19.839844 2.585938 -18.324219 2.585938 -16.511719 L 2.585938 -10.113281 C 2.585938 -8.304688 2.714844 -6.753906 3.003906 -5.492188 C 3.296875 -4.199219 3.78125 -3.132812 4.394531 -2.328125 C 5.042969 -1.488281 5.882812 -0.871094 6.914062 -0.515625 C 7.886719 -0.160156 9.113281 0.03125 10.535156 0.03125 L 18.417969 0.03125 C 19.839844 0.03125 21.070312 -0.160156 22.070312 -0.515625 C 23.105469 -0.871094 23.945312 -1.488281 24.589844 -2.292969 C 25.238281 -3.132812 25.691406 -4.199219 25.980469 -5.492188 C 26.238281 -6.753906 26.402344 -8.304688 26.402344 -10.113281 L 26.402344 -16.511719 C 26.402344 -18.289062 26.238281 -19.839844 25.980469 -21.101562 C 25.691406 -22.394531 25.238281 -23.460938 24.589844 -24.269531 Z M 21.585938 -17.0625 L 21.585938 -9.53125 C 21.585938 -8.597656 21.554688 -7.789062 21.425781 -7.140625 C 21.328125 -6.558594 21.132812 -6.042969 20.875 -5.71875 C 20.648438 -5.363281 20.324219 -5.136719 19.90625 -5.007812 C 19.484375 -4.847656 18.9375 -4.78125 18.257812 -4.78125 L 10.695312 -4.78125 C 10.019531 -4.78125 9.46875 -4.847656 9.046875 -5.007812 C 8.628906 -5.136719 8.304688 -5.363281 8.078125 -5.71875 C 7.820312 -6.042969 7.660156 -6.558594 7.53125 -7.140625 C 7.433594 -7.789062 7.367188 -8.597656 7.367188 -9.53125 L 7.367188 -17.0625 C 7.367188 -18 7.433594 -18.808594 7.53125 -19.453125 C 7.660156 -20.066406 7.820312 -20.550781 8.078125 -20.90625 C 8.304688 -21.230469 8.628906 -21.457031 9.046875 -21.617188 C 9.46875 -21.746094 10.019531 -21.84375 10.695312 -21.84375 L 18.257812 -21.84375 C 18.9375 -21.84375 19.484375 -21.746094 19.90625 -21.617188 C 20.324219 -21.457031 20.648438 -21.230469 20.875 -20.90625 C 21.132812 -20.550781 21.328125 -20.066406 21.425781 -19.453125 C 21.554688 -18.808594 21.585938 -18 21.585938 -17.0625 Z M 21.585938 -17.0625 "/></g></g></g><g fill="#225aa5" fill-opacity="1"><g transform="translate(176.097875, 257.580183)"><g><path d="M 24.65625 -20.617188 C 24.332031 -21.972656 23.785156 -23.105469 23.105469 -24.011719 C 22.394531 -24.882812 21.457031 -25.5625 20.359375 -25.980469 C 19.257812 -26.402344 17.96875 -26.628906 16.449219 -26.628906 L 5.171875 -26.628906 L 5.171875 -26.59375 C 4.234375 -26.53125 3.425781 -26.011719 2.941406 -25.238281 C 2.8125 -24.980469 2.683594 -24.6875 2.617188 -24.429688 L 2.585938 -2.359375 C 2.648438 -2.003906 2.777344 -1.648438 2.941406 -1.355469 C 3.457031 -0.484375 4.394531 0.03125 5.398438 0.03125 L 16.449219 0.03125 C 17.96875 0.03125 19.292969 -0.195312 20.359375 -0.613281 C 21.457031 -1.035156 22.394531 -1.710938 23.105469 -2.617188 C 23.785156 -3.488281 24.332031 -4.621094 24.65625 -5.976562 C 24.980469 -7.335938 25.140625 -8.953125 25.140625 -10.761719 L 25.140625 -15.835938 C 25.140625 -17.644531 24.980469 -19.257812 24.65625 -20.617188 Z M 7.335938 -4.945312 L 7.335938 -21.652344 C 7.335938 -21.78125 7.367188 -21.84375 7.398438 -21.84375 L 16.351562 -21.84375 C 17.09375 -21.84375 17.742188 -21.746094 18.257812 -21.554688 C 18.773438 -21.359375 19.164062 -21.101562 19.453125 -20.679688 C 19.777344 -20.261719 20.003906 -19.710938 20.132812 -19.035156 C 20.261719 -18.289062 20.359375 -17.386719 20.359375 -16.320312 L 20.359375 -10.277344 C 20.359375 -9.210938 20.261719 -8.304688 20.132812 -7.59375 C 20.003906 -6.882812 19.777344 -6.332031 19.453125 -5.914062 C 19.164062 -5.527344 18.773438 -5.234375 18.257812 -5.042969 C 17.742188 -4.847656 17.09375 -4.78125 16.351562 -4.78125 L 7.367188 -4.78125 C 7.367188 -4.78125 7.335938 -4.816406 7.335938 -4.945312 Z M 7.335938 -4.945312 "/></g></g></g><g fill="#225aa5" fill-opacity="1"><g transform="translate(201.90953, 257.580183)"><g><path d="M 22.007812 -5.785156 L 10.632812 -5.785156 C 9.953125 -5.785156 9.402344 -5.882812 8.953125 -6.011719 C 8.53125 -6.171875 8.242188 -6.398438 7.980469 -6.722656 C 7.722656 -7.078125 7.53125 -7.5625 7.433594 -8.175781 C 7.398438 -8.335938 7.398438 -8.5625 7.367188 -8.726562 C 7.367188 -8.726562 7.398438 -11.050781 7.433594 -11.050781 L 21.878906 -11.050781 C 22.136719 -11.050781 22.78125 -11.179688 22.78125 -12.183594 L 22.78125 -14.734375 C 22.78125 -15.738281 22.136719 -15.835938 21.878906 -15.835938 L 5.203125 -15.800781 C 4.265625 -15.738281 3.457031 -15.253906 3.003906 -14.445312 C 2.84375 -14.1875 2.714844 -13.925781 2.648438 -13.636719 L 2.585938 -9.566406 L 2.585938 -9.402344 C 2.617188 -7.886719 2.777344 -6.59375 3.003906 -5.527344 C 3.296875 -4.234375 3.78125 -3.167969 4.394531 -2.359375 C 5.042969 -1.519531 5.882812 -0.9375 6.914062 -0.582031 C 7.917969 -0.195312 9.113281 -0.03125 10.535156 -0.03125 L 22.007812 -0.03125 C 22.296875 -0.03125 22.945312 -0.128906 22.945312 -1.132812 L 22.945312 -4.6875 C 22.945312 -5.6875 22.296875 -5.785156 22.007812 -5.785156 Z M 22.039062 -26.691406 L 3.457031 -26.691406 C 3.199219 -26.691406 2.585938 -26.5625 2.585938 -25.527344 L 2.585938 -23.007812 C 2.585938 -22.007812 3.199219 -21.910156 3.457031 -21.910156 L 22.039062 -21.878906 C 22.296875 -21.878906 22.945312 -22.007812 22.945312 -23.007812 L 22.945312 -25.5625 C 22.945312 -26.5625 22.296875 -26.691406 22.039062 -26.691406 Z M 22.039062 -26.691406 "/></g></g></g><g fill="#225aa5" fill-opacity="1"><g transform="translate(225.524324, 257.580183)"><g><path d="M 18.191406 -15.898438 L 8.5 -15.898438 C 8.015625 -15.898438 7.398438 -16.09375 7.398438 -17.675781 L 7.398438 -20.066406 C 7.398438 -20.648438 7.496094 -21.101562 7.660156 -21.425781 C 7.789062 -21.617188 7.980469 -21.84375 8.53125 -21.84375 L 21.683594 -21.84375 C 21.941406 -21.84375 22.589844 -21.941406 22.589844 -22.945312 L 22.589844 -25.527344 C 22.589844 -26.53125 21.941406 -26.628906 21.683594 -26.628906 L 7.753906 -26.628906 C 5.976562 -26.628906 4.6875 -26.046875 3.84375 -24.851562 C 3.003906 -23.6875 2.585938 -22.136719 2.585938 -20.261719 L 2.585938 -17.804688 C 2.585938 -15.574219 3.039062 -13.765625 3.84375 -12.636719 C 4.847656 -11.308594 6.332031 -11.117188 7.691406 -11.117188 L 17.386719 -11.117188 C 17.871094 -11.117188 18.515625 -10.921875 18.515625 -9.339844 L 18.515625 -6.558594 C 18.515625 -5.976562 18.417969 -5.527344 18.226562 -5.203125 C 18.097656 -5.007812 17.902344 -4.78125 17.351562 -4.78125 L 3.554688 -4.78125 C 3.265625 -4.78125 2.617188 -4.6875 2.617188 -3.683594 L 2.617188 -1.097656 C 2.617188 -0.0976562 3.265625 0 3.554688 0 L 18.128906 0 C 19.90625 0 21.230469 -0.613281 22.070312 -1.808594 C 22.878906 -2.972656 23.300781 -4.492188 23.300781 -6.367188 L 23.300781 -9.210938 C 23.300781 -11.308594 22.878906 -12.957031 22.039062 -14.121094 C 21.167969 -15.285156 19.875 -15.898438 18.191406 -15.898438 Z M 18.191406 -15.898438 "/></g></g></g></svg>